solid OBJECT
  facet normal -0.24970721381527874 0.3351389014692206 0.90847576967721855
    outer loop
      vertex 4.9374744985982879 6.6867460062372039 3.583967370047394
      vertex 6.4869228519982904 6.4963031942739677 4.0801096350550781
      vertex 5.6047222039347346 7.3867797682569112 3.5091255494508955
    endloop
  endfacet
  facet normal 0.58663368724476628 -0.68023535676350677 -0.4394778451736045
    outer loop
      vertex 6.5409947479225252 1.8927755069927088 0.45171991049276716
      vertex 7.3196019845958951 2.3102743102892029 0.84482229017742494
      vertex 7.308248373458607 1.8803596982691684 1.4951001411744214
    endloop
  endfacet
  facet normal -0.58970374220171806 0.022400943713979302 0.80730892114110375
    outer loop
      vertex 5.1104341596231464 7.3997771153237766 9.796651446424999
      vertex 4.4008015243124134 6.8413203639537521 9.2937918201455574
      vertex 4.9663788042930648 6.0515728806763267 9.7288348603408572
    endloop
  endfacet
  facet normal -0.11968003821556943 -0.77974211952957906 0.61455586848083976
    outer loop
      vertex 3.5420564888043629 3.3716350188928255 5.4959010343724168
      vertex 3.4032548751340954 2.4465555172320306 4.2951391970297115
      vertex 4.7484364891936828 3.1255982234027 5.4186653422522246
    endloop
  endfacet
  facet normal 0.0098443033365566718 0.95510026927684688 -0.29611917418349093
    outer loop
      vertex 4.9374744985982879 6.6867460062372039 3.583967370047394
      vertex 4.189322103826786 6.3241030062686141 2.3894298430101246
      vertex 2.7747496312170341 6.8233670256513577 3.9527251619209336
    endloop
  endfacet
  facet normal 0.3422043160099954 0.93746498507975973 -0.063683654524036612
    outer loop
      vertex 7.4492403551386701 6.7074579865127246 3.4205893037133395
      vertex 8.113504447636263 6.4148859063652095 2.6831623818745465
      vertex 5.6047222039347346 7.3867797682569112 3.5091255494508955
    endloop
  endfacet
  facet normal -0.8860864329888376 -0.092887062880234073 -0.45411763544548855
    outer loop
      vertex 0.47762744791269518 2.7424248429923734 4.7750880975207144
      vertex 0.18390485733326023 2.5627895336801529 5.3849507789703788
      vertex 0.19899518393584947 4.2553727206193512 5.0092983020084914
    endloop
  endfacet
  facet normal 0.78809847017161838 0.45536125340617917 -0.41418224275010629
    outer loop
      vertex 8.036328794288611 6.247811528565391 1.5254336838119942
      vertex 9.0439015694183524 4.7522922172078639 1.7984174162933231
      vertex 8.2468058814292036 5.1291499528937132 0.69604403018368455
    endloop
  endfacet
  facet normal -0.17316579182117725 0.98362886223402113 -0.04987855173468593
    outer loop
      vertex 3.0299120583361585 8.9997241850253431 9.360138852553014
      vertex 3.9384589938685579 9.1107208657572976 8.3947998632783296
      vertex 2.8373585082758481 8.8871863927773145 7.8093373578637904
    endloop
  endfacet
  facet normal 0.28597408863040386 0.87417889812799487 -0.39246665425196936
    outer loop
      vertex 7.4275359898030793 6.1250136511374818 0.80831217154921919
      vertex 6.8346873191156767 6.9417793674484916 2.1955892553963308
      vertex 8.036328794288611 6.247811528565391 1.5254336838119942
    endloop
  endfacet
  facet normal -0.98085051474073137 0.13986765249431302 -0.13553341845674988
    outer loop
      vertex 2.9377432050630006 3.1198702801586062 1.3280619786225722
      vertex 3.1837145513098122 3.9874831645426365 0.44333446617289329
      vertex 2.9345152920152664 2.701745258502025 0.91992599501286687
    endloop
  endfacet
  facet normal 0.17641241720526346 0.94463420703929291 -0.27666744287509226
    outer loop
      vertex 6.8346873191156767 6.9417793674484916 2.1955892553963308
      vertex 5.7744961448573697 6.8026866355439495 1.0446672786390954
      vertex 4.8769007875769468 7.3931745956576087 2.488451755652874
    endloop
  endfacet
  facet normal -0.13296104600384567 -0.78073659996038669 0.610550343319745
    outer loop
      vertex 2.0969999075727976 4.2900538819593779 0.59358795211108539
      vertex 2.2212622936315398 3.7962104561740881 -0.010849641559755874
      vertex 3.1837145513098122 3.9874831645426365 0.44333446617289329
    endloop
  endfacet
  facet normal -0.26642128163335727 0.50407078498407276 0.82154266135020637
    outer loop
      vertex 3.2140860545085062 5.5354008783054995 0.86654716294257472
      vertex 5.1786806163374202 6.5388925004187568 0.88794470222546718
      vertex 3.4953978105068941 6.576520928451167 0.31897880948831503
    endloop
  endfacet
  facet normal 0.45560264919840299 0.83282959726734396 0.31435821598760633
    outer loop
      vertex 2.7027089073361701 5.9199840354169373 6.730953737400811
      vertex 3.1467850339304029 5.6423458145476522 6.822896834417338
      vertex 3.2991510469116605 5.9536307060170532 5.7773837437943554
    endloop
  endfacet
  facet normal 0.97492740831092661 -0.15222429580593225 0.16230931054787895
    outer loop
      vertex 9.8576608092881948 4.0820453657455245 2.4077357345698713
      vertex 9.7675335360783535 2.9207797905739339 1.8599835123747122
      vertex 9.9707759511279583 3.9858629030749935 1.6380919026677221
    endloop
  endfacet
  facet normal 0.18393380184350472 0.94179668382791237 0.28140249265090356
    outer loop
      vertex 3.7472531309938653 8.7270280801520013 9.8039196285285648
      vertex 3.9384589938685579 9.1107208657572976 8.3947998632783296
      vertex 3.0299120583361585 8.9997241850253431 9.360138852553014
    endloop
  endfacet
  facet normal 0.98036233490820834 0.18354216110445393 -0.07212466561747502
    outer loop
      vertex 2.7027089073361701 5.9199840354169373 6.730953737400811
      vertex 2.5678442401829251 6.7700211799996888 7.0609575487881449
      vertex 2.7026845165848137 6.288325744634272 7.6679746716695663
    endloop
  endfacet
  facet normal -0.90259508318317205 0.38119855656391338 -0.2000244392246901
    outer loop
      vertex 0.077034795025475722 4.33179723481783 5.7052820648515334
      vertex 0.70599486755077101 5.5817264635872963 5.2492125389501387
      vertex 0.19899518393584947 4.2553727206193512 5.0092983020084914
    endloop
  endfacet
  facet normal 0.19521426382397766 -0.87338675044602265 0.44619163522526889
    outer loop
      vertex 3.2144921888797242 4.6191760920391909 7.7172378807885567
      vertex 4.3326184224656608 5.1999593256189645 8.3648837995474814
      vertex 2.9083548367646408 4.6976968800519856 8.004875262521022
    endloop
  endfacet
  facet normal -0.21468727816712765 -0.81695962214123596 0.53524419509606946
    outer loop
      vertex 4.0816654288799405 1.5846910835216754 0.16954601342853426
      vertex 5.1411305528656861 1.7957231802456219 0.91660387868758075
      vertex 3.8962391705187329 2.2346113198531734 1.0871644322492857
    endloop
  endfacet
  facet normal -0.026230711392948282 0.75605406228425343 -0.65398333670155406
    outer loop
      vertex 4.9077731083855483 6.8601871991615813 8.1601816045748556
      vertex 5.5904717220224356 6.7913078918972278 8.0531694737762507
      vertex 3.1467850339304029 5.6423458145476522 6.822896834417338
    endloop
  endfacet
  facet normal 0.34847206041628692 0.93447770966135113 0.072928960333350556
    outer loop
      vertex 7.6822529257393448 6.0626564046028362 5.3638855473122371
      vertex 8.5075410061872461 5.8437683915703174 4.2251901873325304
      vertex 7.5533461904712276 6.1832653975371263 4.4344054130619037
    endloop
  endfacet
  facet normal 0.70180865526121816 -0.70146948021676592 -0.12411760441154523
    outer loop
      vertex 9.323579625037798 3.1221318569451348 3.1718364518910702
      vertex 8.1447651006218749 2.3142595583478229 1.0721788244360075
      vertex 9.1474677539233298 3.1026182086819718 2.286316567268929
    endloop
  endfacet
  facet normal 0.95111001559751851 0.26676165112554306 -0.15565333185917304
    outer loop
      vertex 5.7581540796598709 7.122405316507626 9.6452231902020493
      vertex 5.5904717220224356 6.7913078918972278 8.0531694737762507
      vertex 5.4989691420462741 7.7789795592433606 9.1867391980817317
    endloop
  endfacet
  facet normal 0.43107197820013521 -0.41208782622240614 0.80272073169310532
    outer loop
      vertex 9.1474677539233298 3.1026182086819718 2.286316567268929
      vertex 9.7675335360783535 2.9207797905739339 1.8599835123747122
      vertex 9.8576608092881948 4.0820453657455245 2.4077357345698713
    endloop
  endfacet
  facet normal 0.46852851368409487 -0.84536780793113819 0.25658195801473505
    outer loop
      vertex 7.3097486446468309 1.7355685189128611 4.1155838230600006
      vertex 8.8374736087978469 2.614591126252078 4.2220398970873729
      vertex 7.9755245273994682 2.3778418401861066 5.0159674926371833
    endloop
  endfacet
  facet normal 0.99857267616837486 0.013122229205293007 0.051772748725693284
    outer loop
      vertex 9.2303519775390477 4.7721554516960127 4.5517630621193517
      vertex 9.323579625037798 3.1221318569451348 3.1718364518910702
      vertex 9.3495415072841972 4.1246453183005514 2.416998460547215
    endloop
  endfacet
  facet normal -0.87739176864135837 -0.47222940646462164 0.084753005790122848
    outer loop
      vertex 0.38615349107228858 4.1317799839477374 3.7580298944550306
      vertex 0.83379681959164009 3.2148661044149138 3.2832959896718039
      vertex 0.86349873339834793 3.388269947637764 4.5569571140692533
    endloop
  endfacet
  facet normal 0.30397420363418642 0.17952679101876451 0.93561200015362511
    outer loop
      vertex 6.7241039285388773 3.9912557461932705 6.3940217309125513
      vertex 8.0982793828580881 4.4191262910787596 5.8654606231094553
      vertex 6.9111093462429132 5.1129887894047341 6.1180248898000711
    endloop
  endfacet
  facet normal -0.87742160037569661 -0.12933613771500482 -0.46195616531778921
    outer loop
      vertex 0.79150508933981789 5.0831849384015735 2.827481628553703
      vertex 1.6101262480661338 3.5944197926069963 1.6894412846011386
      vertex 1.3381347261135479 3.0548585868462084 2.3571150208787595
    endloop
  endfacet
  facet normal 0.70160864756982788 0.59344145387980041 0.39442685820347673
    outer loop
      vertex 7.6822529257393448 6.0626564046028362 5.3638855473122371
      vertex 9.2303519775390477 4.7721554516960127 4.5517630621193517
      vertex 8.5075410061872461 5.8437683915703174 4.2251901873325304
    endloop
  endfacet
  facet normal 0.86883018812503254 0.48049773428626108 0.11939862456657674
    outer loop
      vertex 3.4695362837669244 5.021691414622814 6.9720359379059227
      vertex 3.8078287618596676 4.6387038773389042 6.0516394605031953
      vertex 3.1467850339304029 5.6423458145476522 6.822896834417338
    endloop
  endfacet
  facet normal -0.88600173555369066 0.42451473430777598 -0.18651585710455401
    outer loop
      vertex 1.6137227712522628 6.0162178102942407 7.0875484418956836
      vertex 2.8373585082758481 8.8871863927773145 7.8093373578637904
      vertex 2.6838251862235509 8.3019228530624627 7.2065885728347512
    endloop
  endfacet
  facet normal -0.46557710500919619 0.61207488716039371 -0.63922006523485131
    outer loop
      vertex 0.67429265033688401 4.775705178673145 4.5005101960034155
      vertex 0.70599486755077101 5.5817264635872963 5.2492125389501387
      vertex 1.7632184422184449 5.9939954360141954 4.8739433327571335
    endloop
  endfacet
  facet normal -0.4331025896855068 0.85269525620995701 0.29211803580871792
    outer loop
      vertex 2.7747496312170341 6.8233670256513577 3.9527251619209336
      vertex 1.5134170498853583 6.2976902223685602 3.617092715608039
      vertex 1.7632184422184449 5.9939954360141954 4.8739433327571335
    endloop
  endfacet
  facet normal 0.23017497251982436 0.38370963819842696 -0.89430777452682952
    outer loop
      vertex 2.5678442401829251 6.7700211799996888 7.0609575487881449
      vertex 2.7027089073361701 5.9199840354169373 6.730953737400811
      vertex 2.028372329006455 6.1149636143958306 6.6410519586506256
    endloop
  endfacet
  facet normal -0.27761766333436394 0.5507285161557991 0.78716360084648185
    outer loop
      vertex 2.4351305842278528 8.3667001508181311 9.5932575381935195
      vertex 3.7472531309938653 8.7270280801520013 9.8039196285285648
      vertex 3.0299120583361585 8.9997241850253431 9.360138852553014
    endloop
  endfacet
  facet normal -0.50597668367019588 -0.48220714927468061 0.71516701599730981
    outer loop
      vertex 2.0267984056030777 5.2761842632581377 7.7712287941823854
      vertex 2.9083548367646408 4.6976968800519856 8.004875262521022
      vertex 3.148805932032829 5.4322534816921229 8.6702738085695188
    endloop
  endfacet
  facet normal -0.057313982872415889 0.29756072783143395 0.95298096550756328
    outer loop
      vertex 1.8782570500537366 4.2392266977220059 8.0860770042551202
      vertex 2.9083548367646408 4.6976968800519856 8.004875262521022
      vertex 2.0267984056030777 5.2761842632581377 7.7712287941823854
    endloop
  endfacet
  facet normal -0.15161832576535211 0.19999784091616093 0.96799418744173527
    outer loop
      vertex 2.7026845165848137 6.288325744634272 7.6679746716695663
      vertex 2.0267984056030777 5.2761842632581377 7.7712287941823854
      vertex 2.8474348119804773 5.745952053989539 7.8027072622497728
    endloop
  endfacet
  facet normal -0.3984368745364204 -0.10290712029732053 0.91140451041332993
    outer loop
      vertex 0.28714379562162384 4.4342728167649357 7.4125159776423333
      vertex 0.97125907994659477 3.4278854146973856 7.5979575947593192
      vertex 1.8782570500537366 4.2392266977220059 8.0860770042551202
    endloop
  endfacet
  facet normal -0.91902151580926528 0.011529199663538553 0.39403874306311359
    outer loop
      vertex 0.077034795025475722 4.33179723481783 5.7052820648515334
      vertex 0.43130404427234814 2.7338754265015783 6.5783023657186801
      vertex 0.49321291985741644 4.8568454744759846 6.6605771259806046
    endloop
  endfacet
  facet normal 0.97970309332285976 0.20036206720476399 -0.0060737928062786495
    outer loop
      vertex 9.2303519775390477 4.7721554516960127 4.5517630621193517
      vertex 9.3495415072841972 4.1246453183005514 2.416998460547215
      vertex 9.0506524407027058 5.6128984546646352 3.3006196189878034
    endloop
  endfacet
  facet normal -0.076045136169795913 -0.49492888428167087 0.86559952447342392
    outer loop
      vertex 2.5952681058102058 3.1995963596199726 7.6101007855680125
      vertex 0.97125907994659477 3.4278854146973856 7.5979575947593192
      vertex 1.6433897787958462 2.4707254864619763 7.1097250889710617
    endloop
  endfacet
  facet normal 0.58766361871058859 0.55032058107034798 -0.59312623386119978
    outer loop
      vertex 8.036328794288611 6.247811528565391 1.5254336838119942
      vertex 8.2468058814292036 5.1291499528937132 0.69604403018368455
      vertex 7.4275359898030793 6.1250136511374818 0.80831217154921919
    endloop
  endfacet
  facet normal -0.6129675519847565 0.65328164358490892 -0.44440282893880717
    outer loop
      vertex 0.79150508933981789 5.0831849384015735 2.827481628553703
      vertex 1.5134170498853583 6.2976902223685602 3.617092715608039
      vertex 1.5718837316000778 5.1127973721844375 1.7946314829970378
    endloop
  endfacet
  facet normal -0.25731433626767747 0.84149379185149864 0.47505529217819598
    outer loop
      vertex 3.2991510469116605 5.9536307060170532 5.7773837437943554
      vertex 2.7747496312170341 6.8233670256513577 3.9527251619209336
      vertex 1.7632184422184449 5.9939954360141954 4.8739433327571335
    endloop
  endfacet
  facet normal -0.69050759022618491 -0.70993497011437545 -0.13853377223163998
    outer loop
      vertex 3.7542565490917781 2.1647193818961616 2.1530331102014921
      vertex 2.9377432050630006 3.1198702801586062 1.3280619786225722
      vertex 3.8962391705187329 2.2346113198531734 1.0871644322492857
    endloop
  endfacet
  facet normal -0.94031604797700696 0.31791668290536979 0.12138662466412753
    outer loop
      vertex 3.0779294629249634 5.4669568085092299 -0.0089258701344219205
      vertex 3.2140860545085062 5.5354008783054995 0.86654716294257472
      vertex 3.4953978105068941 6.576520928451167 0.31897880948831503
    endloop
  endfacet
  facet normal 0.00091938829656679091 -0.0018316485854757189 -0.99999789989210441
    outer loop
      vertex 7.2804511198981849 6.1636725120567357 -0.0018832697561732559
      vertex 7.2888115189742777 4.950706076152783 0.00034614963546619748
      vertex 4.3123884976836138 6.6724000556953298 -0.0055438895679094102
    endloop
  endfacet
  facet normal -0.91666117862470342 0.39955903135636062 0.0092121693393230758
    outer loop
      vertex 0.67429265033688401 4.775705178673145 4.5005101960034155
      vertex 0.79150508933981789 5.0831849384015735 2.827481628553703
      vertex 0.38615349107228858 4.1317799839477374 3.7580298944550306
    endloop
  endfacet
  facet normal 0.38958342990209133 0.3576289795298 0.84872036864104783
    outer loop
      vertex 6.9111093462429132 5.1129887894047341 6.1180248898000711
      vertex 8.0982793828580881 4.4191262910787596 5.8654606231094553
      vertex 7.6822529257393448 6.0626564046028362 5.3638855473122371
    endloop
  endfacet
  facet normal -0.4225712096147497 -0.62938848721046281 0.65215313000218933
    outer loop
      vertex 1.6433897787958462 2.4707254864619763 7.1097250889710617
      vertex 0.97125907994659477 3.4278854146973856 7.5979575947593192
      vertex 0.43130404427234814 2.7338754265015783 6.5783023657186801
    endloop
  endfacet
  facet normal -0.358141015569719 -0.2081366984534177 0.91017258128533052
    outer loop
      vertex 6.6443630139156831 2.8436256045780981 6.10020663873589
      vertex 6.7241039285388773 3.9912557461932705 6.3940217309125513
      vertex 4.7484364891936828 3.1255982234027 5.4186653422522246
    endloop
  endfacet
  facet normal 0.96752773178751306 0.23525052622362297 -0.092451490705226236
    outer loop
      vertex 2.8474348119804773 5.745952053989539 7.8027072622497728
      vertex 2.7027089073361701 5.9199840354169373 6.730953737400811
      vertex 2.7026845165848137 6.288325744634272 7.6679746716695663
    endloop
  endfacet
  facet normal 0.23099732458575375 -0.75844424405193178 0.60942806359628499
    outer loop
      vertex 6.1567036689676016 2.1299492532180428 5.396865682818377
      vertex 7.9755245273994682 2.3778418401861066 5.0159674926371833
      vertex 6.6443630139156831 2.8436256045780981 6.10020663873589
    endloop
  endfacet
  facet normal 0.00077152614043244575 -0.0020872678284224512 -0.99999752402714825
    outer loop
      vertex 4.3123884976836138 6.6724000556953298 -0.0055438895679094102
      vertex 7.2888115189742777 4.950706076152783 0.00034614963546619748
      vertex 1.6726079790615811 2.8918842114449381 0.00031041434861212025
    endloop
  endfacet
  facet normal -0.67242554584147352 0.70947637850740908 0.21091978010563159
    outer loop
      vertex 3.0299120583361585 8.9997241850253431 9.360138852553014
      vertex 1.8547591136542108 7.9997494561854907 8.9773183744626763
      vertex 2.4351305842278528 8.3667001508181311 9.5932575381935195
    endloop
  endfacet
  facet normal 0.082631725254267749 0.989131572257683 0.12161714823390224
    outer loop
      vertex 5.2507723469952552 6.4915585604615265 4.9585903226596217
      vertex 6.4869228519982904 6.4963031942739677 4.0801096350550781
      vertex 4.9374744985982879 6.6867460062372039 3.583967370047394
    endloop
  endfacet
  facet normal -0.4773918999434722 0.85747979356728765 -0.19189939419436242
    outer loop
      vertex 4.189322103826786 6.3241030062686141 2.3894298430101246
      vertex 5.1786806163374202 6.5388925004187568 0.88794470222546718
      vertex 2.8339893993938539 5.3664848460642975 1.482113964111762
    endloop
  endfacet
  facet normal -0.64278201478899588 -0.73420296886992087 0.21858014998254763
    outer loop
      vertex 1.831918287657629 2.7240327329627565 4.5697952885763593
      vertex 0.83379681959164009 3.2148661044149138 3.2832959896718039
      vertex 2.1081206503023289 2.1918474823928777 3.5944364564776121
    endloop
  endfacet
  facet normal -0.43309856883830139 0.87290926064235508 -0.22462202108215534
    outer loop
      vertex 2.8474348119804773 5.745952053989539 7.8027072622497728
      vertex 4.9077731083855483 6.8601871991615813 8.1601816045748556
      vertex 3.1467850339304029 5.6423458145476522 6.822896834417338
    endloop
  endfacet
  facet normal 0.70491409259744431 -0.57367841546432963 -0.41712012381070479
    outer loop
      vertex 9.0689984744650189 3.4209294691172962 -0.0083806343047365672
      vertex 9.7675335360783535 2.9207797905739339 1.8599835123747122
      vertex 8.4182200676551169 2.6176208153582268 -0.0033509908540496625
    endloop
  endfacet
  facet normal 0.65345115905056872 0.36738823676189764 0.66183643464563979
    outer loop
      vertex 9.2303519775390477 4.7721554516960127 4.5517630621193517
      vertex 7.6822529257393448 6.0626564046028362 5.3638855473122371
      vertex 8.0982793828580881 4.4191262910787596 5.8654606231094553
    endloop
  endfacet
  facet normal 0.38351102822969202 0.8358438073301625 0.392790556116135
    outer loop
      vertex 7.5533461904712276 6.1832653975371263 4.4344054130619037
      vertex 8.5075410061872461 5.8437683915703174 4.2251901873325304
      vertex 7.4492403551386701 6.7074579865127246 3.4205893037133395
    endloop
  endfacet
  facet normal -0.18719569244489659 0.097109241788520942 -0.97751090423039988
    outer loop
      vertex 1.7658232784697814 5.1074824354821278 0.20663422340657878
      vertex 3.0779294629249634 5.4669568085092299 -0.0089258701344219205
      vertex 2.2212622936315398 3.7962104561740881 -0.010849641559755874
    endloop
  endfacet
  facet normal -0.04110477678991456 0.98158985097513862 0.18652549902803212
    outer loop
      vertex 4.3123884976836138 6.6724000556953298 -0.0055438895679094102
      vertex 3.4953978105068941 6.576520928451167 0.31897880948831503
      vertex 5.1786806163374202 6.5388925004187568 0.88794470222546718
    endloop
  endfacet
  facet normal 0.9839512085052261 0.0064541543332401466 -0.17832095550705121
    outer loop
      vertex 7.2804511198981849 6.1636725120567357 -0.0018832697561732559
      vertex 7.4275359898030793 6.1250136511374818 0.80831217154921919
      vertex 7.2888115189742777 4.950706076152783 0.00034614963546619748
    endloop
  endfacet
  facet normal -0.35631080732681808 -0.52095661457321996 0.77565895489868519
    outer loop
      vertex 6.1567036689676016 2.1299492532180428 5.396865682818377
      vertex 6.6443630139156831 2.8436256045780981 6.10020663873589
      vertex 4.7484364891936828 3.1255982234027 5.4186653422522246
    endloop
  endfacet
  facet normal 0.75926906424047014 -0.013628473119035714 0.65063411592679676
    outer loop
      vertex 9.2303519775390477 4.7721554516960127 4.5517630621193517
      vertex 8.0982793828580881 4.4191262910787596 5.8654606231094553
      vertex 8.4631220882618621 3.1645026498828797 5.4134210252834469
    endloop
  endfacet
  facet normal 0.36620213172328292 -0.92626949348373755 -0.088999012144538453
    outer loop
      vertex 6.1715391798495247 1.1841322897096707 2.2955710902744419
      vertex 8.0174015712456139 1.8530263489454157 2.9290902698237842
      vertex 6.7658148185726255 1.317857136474051 3.3490632290491051
    endloop
  endfacet
  facet normal -0.075964927212833502 -0.99346335934598351 0.085204949800713678
    outer loop
      vertex 4.7999487088444894 1.3351891432932039 3.3396043298731248
      vertex 5.1162685669696941 1.1952080469926429 1.98948470130349
      vertex 5.8773551284718586 1.286938564866863 3.7375849470922562
    endloop
  endfacet
  facet normal -0.62271562901925348 0.64145412221178411 0.44806456507144687
    outer loop
      vertex 5.6047222039347346 7.3867797682569112 3.5091255494508955
      vertex 4.8769007875769468 7.3931745956576087 2.488451755652874
      vertex 4.9374744985982879 6.6867460062372039 3.583967370047394
    endloop
  endfacet
  facet normal -0.86775908856707962 0.49605608517103228 0.030373089635739828
    outer loop
      vertex 0.67429265033688401 4.775705178673145 4.5005101960034155
      vertex 1.5134170498853583 6.2976902223685602 3.617092715608039
      vertex 0.79150508933981789 5.0831849384015735 2.827481628553703
    endloop
  endfacet
  facet normal -0.24098771268771385 0.83659132843308881 -0.49197547858008489
    outer loop
      vertex 5.1786806163374202 6.5388925004187568 0.88794470222546718
      vertex 4.8769007875769468 7.3931745956576087 2.488451755652874
      vertex 5.7744961448573697 6.8026866355439495 1.0446672786390954
    endloop
  endfacet
  facet normal -0.15761999058343595 0.26063116845263423 0.95248482014124092
    outer loop
      vertex 4.9383857265966249 5.1005242755359701 5.7949834816515056
      vertex 6.7241039285388773 3.9912557461932705 6.3940217309125513
      vertex 6.9111093462429132 5.1129887894047341 6.1180248898000711
    endloop
  endfacet
  facet normal -0.89343639141006526 -0.10406107021359401 0.43696991677936159
    outer loop
      vertex 0.38615349107228858 4.1317799839477374 3.7580298944550306
      vertex 0.86349873339834793 3.388269947637764 4.5569571140692533
      vertex 0.67429265033688401 4.775705178673145 4.5005101960034155
    endloop
  endfacet
  facet normal -0.74617768337835677 0.51857738157215183 -0.41748816049066506
    outer loop
      vertex 4.8769007875769468 7.3931745956576087 2.488451755652874
      vertex 5.1786806163374202 6.5388925004187568 0.88794470222546718
      vertex 4.189322103826786 6.3241030062686141 2.3894298430101246
    endloop
  endfacet
  facet normal 0.42130704597253621 0.62512857876008832 0.65704994713589859
    outer loop
      vertex 5.1104341596231464 7.3997771153237766 9.796651446424999
      vertex 5.7581540796598709 7.122405316507626 9.6452231902020493
      vertex 5.4989691420462741 7.7789795592433606 9.1867391980817317
    endloop
  endfacet
  facet normal -0.37906574554151906 0.39054376262209456 -0.83891878631607075
    outer loop
      vertex 3.4953978105068941 6.576520928451167 0.31897880948831503
      vertex 4.3123884976836138 6.6724000556953298 -0.0055438895679094102
      vertex 3.0779294629249634 5.4669568085092299 -0.0089258701344219205
    endloop
  endfacet
  facet normal -0.76252147909928247 0.63043115878979605 0.14531878040775478
    outer loop
      vertex 1.4105601606466711 5.760901882883128 7.5520768025351304
      vertex 0.49321291985741644 4.8568454744759846 6.6605771259806046
      vertex 0.28714379562162384 4.4342728167649357 7.4125159776423333
    endloop
  endfacet
  facet normal -0.58096396441187903 -0.38351895546264025 0.71790952275037989
    outer loop
      vertex 2.3885824387941348 2.2629037187557186 0.24369682091406109
      vertex 2.9345152920152664 2.701745258502025 0.91992599501286687
      vertex 1.6726079790615811 2.8918842114449381 0.00031041434861212025
    endloop
  endfacet
  facet normal -0.90442206711875051 0.38492884960999424 -0.18398506799893541
    outer loop
      vertex 1.8745455543635392 7.1382166319746174 8.1528296474398445
      vertex 1.6137227712522628 6.0162178102942407 7.0875484418956836
      vertex 1.4105601606466711 5.760901882883128 7.5520768025351304
    endloop
  endfacet
  facet normal -0.97930700241077562 0.052131662538792693 0.19555072178379443
    outer loop
      vertex 0.18390485733326023 2.5627895336801529 5.3849507789703788
      vertex 0.43130404427234814 2.7338754265015783 6.5783023657186801
      vertex 0.19899518393584947 4.2553727206193512 5.0092983020084914
    endloop
  endfacet
  facet normal -0.032462700533230283 -0.78993692716984554 0.61232819971609342
    outer loop
      vertex 1.831918287657629 2.7240327329627565 4.5697952885763593
      vertex 3.4032548751340954 2.4465555172320306 4.2951391970297115
      vertex 3.5420564888043629 3.3716350188928255 5.4959010343724168
    endloop
  endfacet
  facet normal -0.23338042481983234 -0.6097477809588302 0.75745707530308093
    outer loop
      vertex 2.9083548367646408 4.6976968800519856 8.004875262521022
      vertex 4.9663788042930648 6.0515728806763267 9.7288348603408572
      vertex 3.148805932032829 5.4322534816921229 8.6702738085695188
    endloop
  endfacet
  facet normal -0.40711850737408972 -0.70672706148990727 0.57861159814795804
    outer loop
      vertex 0.43130404427234814 2.7338754265015783 6.5783023657186801
      vertex 0.93779217660147629 1.9640059256084508 5.9943408296176104
      vertex 1.6433897787958462 2.4707254864619763 7.1097250889710617
    endloop
  endfacet
  facet normal 0.2902345229153076 0.70350648234834734 0.64872378636980665
    outer loop
      vertex 7.4492403551386701 6.7074579865127246 3.4205893037133395
      vertex 5.6047222039347346 7.3867797682569112 3.5091255494508955
      vertex 6.4869228519982904 6.4963031942739677 4.0801096350550781
    endloop
  endfacet
  facet normal 0.24933954252144105 0.94970085615655442 0.18946787683062724
    outer loop
      vertex 2.028372329006455 6.1149636143958306 6.6410519586506256
      vertex 2.7027089073361701 5.9199840354169373 6.730953737400811
      vertex 3.2991510469116605 5.9536307060170532 5.7773837437943554
    endloop
  endfacet
  facet normal -0.93680671892690937 -0.33943106477448803 0.084733249904957536
    outer loop
      vertex 2.2212622936315398 3.7962104561740881 -0.010849641559755874
      vertex 2.0969999075727976 4.2900538819593779 0.59358795211108539
      vertex 1.7658232784697814 5.1074824354821278 0.20663422340657878
    endloop
  endfacet
  facet normal 0.78614667846056852 -0.38708930675800052 -0.48180418069899117
    outer loop
      vertex 2.7026845165848137 6.288325744634272 7.6679746716695663
      vertex 2.5678442401829251 6.7700211799996888 7.0609575487881449
      vertex 4.0460615641075783 8.5097861592218056 8.0751687970350474
    endloop
  endfacet
  facet normal -0.21969796630440519 0.85461356665082655 0.47049809276771948
    outer loop
      vertex 3.2991510469116605 5.9536307060170532 5.7773837437943554
      vertex 3.8528503364175428 6.4020314131801079 5.2214564747801839
      vertex 2.7747496312170341 6.8233670256513577 3.9527251619209336
    endloop
  endfacet
  facet normal -0.45485236441554194 0.28636529544683909 0.84326997109421342
    outer loop
      vertex 1.6726079790615811 2.8918842114449381 0.00031041434861212025
      vertex 3.1837145513098122 3.9874831645426365 0.44333446617289329
      vertex 2.2212622936315398 3.7962104561740881 -0.010849641559755874
    endloop
  endfacet
  facet normal -0.1351924827688081 0.58017041611573805 0.80319691288431672
    outer loop
      vertex 6.2531399001708934 6.0371508344808653 5.3397300641814871
      vertex 4.9383857265966249 5.1005242755359701 5.7949834816515056
      vertex 6.9111093462429132 5.1129887894047341 6.1180248898000711
    endloop
  endfacet
  facet normal 0.84922695307878515 -0.46912805355180953 -0.24234779044838323
    outer loop
      vertex 4.0460615641075783 8.5097861592218056 8.0751687970350474
      vertex 4.2066883187837725 8.2992270423629186 9.0456243463555488
      vertex 2.7026845165848137 6.288325744634272 7.6679746716695663
    endloop
  endfacet
  facet normal 0.68593331360159338 -0.68978744587636232 0.23170837016150836
    outer loop
      vertex 2.7494459938271234 3.4193855651002023 6.8525657618054092
      vertex 1.7306758567203351 1.8697457508470772 5.2552401524629699
      vertex 2.4004007613753977 2.6033717296964385 5.4566112427475622
    endloop
  endfacet
  facet normal 0.81231891611879814 -0.36861416636531735 0.45195306711027305
    outer loop
      vertex 3.4695362837669244 5.021691414622814 6.9720359379059227
      vertex 3.5420564888043629 3.3716350188928255 5.4959010343724168
      vertex 3.8078287618596676 4.6387038773389042 6.0516394605031953
    endloop
  endfacet
  facet normal -0.72827202874335728 0.68292672519474107 0.056841359632060752
    outer loop
      vertex 1.4105601606466711 5.760901882883128 7.5520768025351304
      vertex 1.6137227712522628 6.0162178102942407 7.0875484418956836
      vertex 0.49321291985741644 4.8568454744759846 6.6605771259806046
    endloop
  endfacet
  facet normal 0.69593766853518757 -0.57742089074582081 0.42691436664056015
    outer loop
      vertex 2.7494459938271234 3.4193855651002023 6.8525657618054092
      vertex 3.5420564888043629 3.3716350188928255 5.4959010343724168
      vertex 3.2144921888797242 4.6191760920391909 7.7172378807885567
    endloop
  endfacet
  facet normal 0.08928494369433472 -0.93556762038818253 -0.34167444521165619
    outer loop
      vertex 5.1162685669696941 1.1952080469926429 1.98948470130349
      vertex 6.5409947479225252 1.8927755069927088 0.45171991049276716
      vertex 6.1715391798495247 1.1841322897096707 2.2955710902744419
    endloop
  endfacet
  facet normal -0.83724953774396471 0.3894679674706939 -0.38383318494075463
    outer loop
      vertex 0.70599486755077101 5.5817264635872963 5.2492125389501387
      vertex 0.67429265033688401 4.775705178673145 4.5005101960034155
      vertex 0.19899518393584947 4.2553727206193512 5.0092983020084914
    endloop
  endfacet
  facet normal 0.74938125127719202 0.59438327691544057 0.29178118574968609
    outer loop
      vertex 9.2303519775390477 4.7721554516960127 4.5517630621193517
      vertex 9.0506524407027058 5.6128984546646352 3.3006196189878034
      vertex 8.5075410061872461 5.8437683915703174 4.2251901873325304
    endloop
  endfacet
  facet normal -0.00062140605713464719 -0.0019337854366420215 -0.99999793716207086
    outer loop
      vertex 8.4182200676551169 2.6176208153582268 -0.0033509908540496625
      vertex 1.6726079790615811 2.8918842114449381 0.00031041434861212025
      vertex 8.7115450758977921 4.4633176638015213 -0.007102454215517362
    endloop
  endfacet
  facet normal 0.26474761053707158 0.78145848954842079 -0.56500560335948169
    outer loop
      vertex 7.2888115189742777 4.950706076152783 0.00034614963546619748
      vertex 8.2468058814292036 5.1291499528937132 0.69604403018368455
      vertex 8.7115450758977921 4.4633176638015213 -0.007102454215517362
    endloop
  endfacet
  facet normal 0.69879376073538102 -0.71498216183548147 -0.022085927971543139
    outer loop
      vertex 8.8374736087978469 2.614591126252078 4.2220398970873729
      vertex 8.0174015712456139 1.8530263489454157 2.9290902698237842
      vertex 9.323579625037798 3.1221318569451348 3.1718364518910702
    endloop
  endfacet
  facet normal -0.075546834176565797 -0.88416182708973545 0.46103203724170744
    outer loop
      vertex 3.4032548751340954 2.4465555172320306 4.2951391970297115
      vertex 1.831918287657629 2.7240327329627565 4.5697952885763593
      vertex 2.1081206503023289 2.1918474823928777 3.5944364564776121
    endloop
  endfacet
  facet normal 0.083196045033673574 0.98910061319612874 0.12148413503744962
    outer loop
      vertex 2.7747496312170341 6.8233670256513577 3.9527251619209336
      vertex 5.2507723469952552 6.4915585604615265 4.9585903226596217
      vertex 4.9374744985982879 6.6867460062372039 3.583967370047394
    endloop
  endfacet
  facet normal -0.47051104493800283 -0.67786932959173263 0.56490045901043817
    outer loop
      vertex 4.7484364891936828 3.1255982234027 5.4186653422522246
      vertex 4.4179425938723718 2.0819547122315738 3.8910423043894626
      vertex 6.1567036689676016 2.1299492532180428 5.396865682818377
    endloop
  endfacet
  facet normal -0.31242714867771648 -0.75967861528094049 -0.5703312004913853
    outer loop
      vertex 2.1325976746573119 2.3489684265341735 2.7959581314069082
      vertex 2.9377432050630006 3.1198702801586062 1.3280619786225722
      vertex 3.7542565490917781 2.1647193818961616 2.1530331102014921
    endloop
  endfacet
  facet normal -0.4428110280622628 0.87765205678512759 -0.18342644478721429
    outer loop
      vertex 4.4008015243124134 6.8413203639537521 9.2937918201455574
      vertex 4.9077731083855483 6.8601871991615813 8.1601816045748556
      vertex 2.8474348119804773 5.745952053989539 7.8027072622497728
    endloop
  endfacet
  facet normal -0.03207949408757229 0.99906059818563775 0.029134639384086593
    outer loop
      vertex 6.0361028790051421 7.4302052539343597 2.4949987743607016
      vertex 4.8769007875769468 7.3931745956576087 2.488451755652874
      vertex 5.6047222039347346 7.3867797682569112 3.5091255494508955
    endloop
  endfacet
  facet normal 0.2409299679289939 0.66491379168709497 -0.70699533250087621
    outer loop
      vertex 3.9384589938685579 9.1107208657572976 8.3947998632783296
      vertex 2.6838251862235509 8.3019228530624627 7.2065885728347512
      vertex 2.8373585082758481 8.8871863927773145 7.8093373578637904
    endloop
  endfacet
  facet normal 0.84534851030240266 0.47518703351249714 0.24409665977047212
    outer loop
      vertex 3.7472531309938653 8.7270280801520013 9.8039196285285648
      vertex 4.2066883187837725 8.2992270423629186 9.0456243463555488
      vertex 3.9384589938685579 9.1107208657572976 8.3947998632783296
    endloop
  endfacet
  facet normal -0.25282616149833154 0.11301323228001314 0.96088862070046566
    outer loop
      vertex 1.4105601606466711 5.760901882883128 7.5520768025351304
      vertex 0.28714379562162384 4.4342728167649357 7.4125159776423333
      vertex 2.0267984056030777 5.2761842632581377 7.7712287941823854
    endloop
  endfacet
  facet normal 0.34230567744758744 0.82477177498628329 0.45008703866377203
    outer loop
      vertex 9.8576608092881948 4.0820453657455245 2.4077357345698713
      vertex 9.5813784349435274 4.692388401008337 1.4994210129527774
      vertex 9.0439015694183524 4.7522922172078639 1.7984174162933231
    endloop
  endfacet
  facet normal -0.75951062479380904 0.48111821724892695 0.43780003638251558
    outer loop
      vertex 3.148805932032829 5.4322534816921229 8.6702738085695188
      vertex 4.4008015243124134 6.8413203639537521 9.2937918201455574
      vertex 2.8474348119804773 5.745952053989539 7.8027072622497728
    endloop
  endfacet
  facet normal 0.13204920812249976 -0.85053425391752557 0.50907218500638896
    outer loop
      vertex 7.3097486446468309 1.7355685189128611 4.1155838230600006
      vertex 7.9755245273994682 2.3778418401861066 5.0159674926371833
      vertex 5.8773551284718586 1.286938564866863 3.7375849470922562
    endloop
  endfacet
  facet normal -0.71592547565996656 -0.65478511015432306 0.24229563104035051
    outer loop
      vertex 0.43130404427234814 2.7338754265015783 6.5783023657186801
      vertex 0.18390485733326023 2.5627895336801529 5.3849507789703788
      vertex 0.93779217660147629 1.9640059256084508 5.9943408296176104
    endloop
  endfacet
  facet normal 0.36954162670462098 -0.90742515668874713 -0.20004642246465043
    outer loop
      vertex 7.308248373458607 1.8803596982691684 1.4951001411744214
      vertex 8.1447651006218749 2.3142595583478229 1.0721788244360075
      vertex 8.0174015712456139 1.8530263489454157 2.9290902698237842
    endloop
  endfacet
  facet normal 0.51897198540706135 -0.78812818091598502 0.33094115611194863
    outer loop
      vertex 2.7494459938271234 3.4193855651002023 6.8525657618054092
      vertex 2.4004007613753977 2.6033717296964385 5.4566112427475622
      vertex 3.5420564888043629 3.3716350188928255 5.4959010343724168
    endloop
  endfacet
  facet normal 0.20764879982949591 -0.88577711922283853 0.41506730898814354
    outer loop
      vertex 7.9755245273994682 2.3778418401861066 5.0159674926371833
      vertex 6.1567036689676016 2.1299492532180428 5.396865682818377
      vertex 5.8773551284718586 1.286938564866863 3.7375849470922562
    endloop
  endfacet
  facet normal -0.047607478880702818 0.67377605933313856 -0.73740039993488637
    outer loop
      vertex 5.5904717220224356 6.7913078918972278 8.0531694737762507
      vertex 4.9077731083855483 6.8601871991615813 8.1601816045748556
      vertex 5.011965685781913 7.775102520600373 8.98942945150932
    endloop
  endfacet
  facet normal -0.082643434358759774 0.52710162371432101 0.84577416668701577
    outer loop
      vertex 5.2507723469952552 6.4915585604615265 4.9585903226596217
      vertex 4.9383857265966249 5.1005242755359701 5.7949834816515056
      vertex 6.2531399001708934 6.0371508344808653 5.3397300641814871
    endloop
  endfacet
  facet normal -0.47727390062600222 -0.66679652336147366 0.57235654990075269
    outer loop
      vertex 6.1567036689676016 2.1299492532180428 5.396865682818377
      vertex 4.4179425938723718 2.0819547122315738 3.8910423043894626
      vertex 4.7999487088444894 1.3351891432932039 3.3396043298731248
    endloop
  endfacet
  facet normal 0.1166562571028902 -0.082988916505419424 -0.98969902365113038
    outer loop
      vertex 2.2212622936315398 3.7962104561740881 -0.010849641559755874
      vertex 4.3123884976836138 6.6724000556953298 -0.0055438895679094102
      vertex 1.6726079790615811 2.8918842114449381 0.00031041434861212025
    endloop
  endfacet
  facet normal -0.74061596035327781 0.63651535209787169 0.21525846281555258
    outer loop
      vertex 1.6137227712522628 6.0162178102942407 7.0875484418956836
      vertex 0.70599486755077101 5.5817264635872963 5.2492125389501387
      vertex 0.49321291985741644 4.8568454744759846 6.6605771259806046
    endloop
  endfacet
  facet normal -0.59942568696151322 -0.78168957792348692 -0.17219247828090259
    outer loop
      vertex 2.1325976746573119 2.3489684265341735 2.7959581314069082
      vertex 2.1081206503023289 2.1918474823928777 3.5944364564776121
      vertex 1.3381347261135479 3.0548585868462084 2.3571150208787595
    endloop
  endfacet
  facet normal 0.95688570769133963 -0.16917258757727233 0.23611517958075909
    outer loop
      vertex 3.2144921888797242 4.6191760920391909 7.7172378807885567
      vertex 3.5420564888043629 3.3716350188928255 5.4959010343724168
      vertex 3.4695362837669244 5.021691414622814 6.9720359379059227
    endloop
  endfacet
  facet normal 0.0073257355153762572 -0.12825436168043153 0.99171424932240626
    outer loop
      vertex 9.1474677539233298 3.1026182086819718 2.286316567268929
      vertex 9.8576608092881948 4.0820453657455245 2.4077357345698713
      vertex 9.3495415072841972 4.1246453183005514 2.416998460547215
    endloop
  endfacet
  facet normal 0.86832350025594496 0.49156230855341965 0.066187579747989667
    outer loop
      vertex 9.8576608092881948 4.0820453657455245 2.4077357345698713
      vertex 9.9707759511279583 3.9858629030749935 1.6380919026677221
      vertex 9.5813784349435274 4.692388401008337 1.4994210129527774
    endloop
  endfacet
  facet normal -0.76541085839866807 -0.58674434249724294 0.26434313759371991
    outer loop
      vertex 4.4179425938723718 2.0819547122315738 3.8910423043894626
      vertex 3.7542565490917781 2.1647193818961616 2.1530331102014921
      vertex 4.7999487088444894 1.3351891432932039 3.3396043298731248
    endloop
  endfacet
  facet normal 0.23154990237023795 0.46257608586239729 0.85580839415172683
    outer loop
      vertex 4.9383857265966249 5.1005242755359701 5.7949834816515056
      vertex 5.2507723469952552 6.4915585604615265 4.9585903226596217
      vertex 3.2991510469116605 5.9536307060170532 5.7773837437943554
    endloop
  endfacet
  facet normal -0.00034650594124840495 0.0048273582033526007 -0.99998828820462149
    outer loop
      vertex 6.5153040873404358 2.0303229386296548 -0.0055267418661619772
      vertex 1.6726079790615811 2.8918842114449381 0.00031041434861212025
      vertex 8.4182200676551169 2.6176208153582268 -0.0033509908540496625
    endloop
  endfacet
  facet normal 0.031267252203135518 0.66377335328386289 -0.74727993042096463
    outer loop
      vertex 2.4564590091097962 6.5045906392601891 2.4772430055074723
      vertex 4.189322103826786 6.3241030062686141 2.3894298430101246
      vertex 2.8339893993938539 5.3664848460642975 1.482113964111762
    endloop
  endfacet
  facet normal -0.31111786354136833 -0.94751057116403836 0.073684411634022756
    outer loop
      vertex 3.7542565490917781 2.1647193818961616 2.1530331102014921
      vertex 4.4179425938723718 2.0819547122315738 3.8910423043894626
      vertex 3.4032548751340954 2.4465555172320306 4.2951391970297115
    endloop
  endfacet
  facet normal -0.26918122027543268 0.9625107460289819 -0.033384643621906865
    outer loop
      vertex 3.0779294629249634 5.4669568085092299 -0.0089258701344219205
      vertex 1.7658232784697814 5.1074824354821278 0.20663422340657878
      vertex 3.2140860545085062 5.5354008783054995 0.86654716294257472
    endloop
  endfacet
  facet normal -0.11666998685826017 -0.96342881884077358 0.24123230545174734
    outer loop
      vertex 8.4182200676551169 2.6176208153582268 -0.0033509908540496625
      vertex 9.7675335360783535 2.9207797905739339 1.8599835123747122
      vertex 9.1474677539233298 3.1026182086819718 2.286316567268929
    endloop
  endfacet
  facet normal -0.011398268822848378 0.50898172198363811 -0.86070185671602484
    outer loop
      vertex 6.0361028790051421 7.4302052539343597 2.4949987743607016
      vertex 6.8346873191156767 6.9417793674484916 2.1955892553963308
      vertex 4.8769007875769468 7.3931745956576087 2.488451755652874
    endloop
  endfacet
  facet normal -0.52416653792535817 0.091053304477230868 0.8467341591450771
    outer loop
      vertex 4.4008015243124134 6.8413203639537521 9.2937918201455574
      vertex 3.148805932032829 5.4322534816921229 8.6702738085695188
      vertex 4.9663788042930648 6.0515728806763267 9.7288348603408572
    endloop
  endfacet
  facet normal 0.19841102386423759 -0.070374299432949233 0.97758913843621753
    outer loop
      vertex 5.7581540796598709 7.122405316507626 9.6452231902020493
      vertex 5.1104341596231464 7.3997771153237766 9.796651446424999
      vertex 4.9663788042930648 6.0515728806763267 9.7288348603408572
    endloop
  endfacet
  facet normal -0.25919869875343615 0.96544101650940073 -0.027197025679668078
    outer loop
      vertex 2.028372329006455 6.1149636143958306 6.6410519586506256
      vertex 1.7632184422184449 5.9939954360141954 4.8739433327571335
      vertex 1.6137227712522628 6.0162178102942407 7.0875484418956836
    endloop
  endfacet
  facet normal -0.43537950489638771 -0.82428523322690594 -0.36193720588002748
    outer loop
      vertex 0.47762744791269518 2.7424248429923734 4.7750880975207144
      vertex 1.7306758567203351 1.8697457508470772 5.2552401524629699
      vertex 0.93779217660147629 1.9640059256084508 5.9943408296176104
    endloop
  endfacet
  facet normal -0.18235654850709418 0.88287917218477763 0.43274756676254311
    outer loop
      vertex 5.1104341596231464 7.3997771153237766 9.796651446424999
      vertex 5.4989691420462741 7.7789795592433606 9.1867391980817317
      vertex 5.011965685781913 7.775102520600373 8.98942945150932
    endloop
  endfacet
  facet normal -0.58329142571079706 -0.8105567160611451 -0.052620554353196618
    outer loop
      vertex 5.1162685669696941 1.1952080469926429 1.98948470130349
      vertex 4.7999487088444894 1.3351891432932039 3.3396043298731248
      vertex 3.7542565490917781 2.1647193818961616 2.1530331102014921
    endloop
  endfacet
  facet normal 0.66281384176062874 -0.70260531816699789 0.25888912308934126
    outer loop
      vertex 2.7494459938271234 3.4193855651002023 6.8525657618054092
      vertex 1.6433897787958462 2.4707254864619763 7.1097250889710617
      vertex 1.7306758567203351 1.8697457508470772 5.2552401524629699
    endloop
  endfacet
  facet normal -0.45904152540094617 0.77249653474472946 0.43878238543150005
    outer loop
      vertex 3.148805932032829 5.4322534816921229 8.6702738085695188
      vertex 2.8474348119804773 5.745952053989539 7.8027072622497728
      vertex 2.0267984056030777 5.2761842632581377 7.7712287941823854
    endloop
  endfacet
  facet normal 0.94158086521041484 0.29038552268653339 -0.17059226970667699
    outer loop
      vertex 9.0506524407027058 5.6128984546646352 3.3006196189878034
      vertex 9.3495415072841972 4.1246453183005514 2.416998460547215
      vertex 9.0439015694183524 4.7522922172078639 1.7984174162933231
    endloop
  endfacet
  facet normal 0.19206738788063424 -0.87005657864542152 0.45399522956583294
    outer loop
      vertex 4.3326184224656608 5.1999593256189645 8.3648837995474814
      vertex 4.9663788042930648 6.0515728806763267 9.7288348603408572
      vertex 2.9083548367646408 4.6976968800519856 8.004875262521022
    endloop
  endfacet
  facet normal 0.072804606695334076 0.71784146627486434 0.69238942694143646
    outer loop
      vertex 9.0439015694183524 4.7522922172078639 1.7984174162933231
      vertex 9.3495415072841972 4.1246453183005514 2.416998460547215
      vertex 9.8576608092881948 4.0820453657455245 2.4077357345698713
    endloop
  endfacet
  facet normal 0.18146098400784672 0.98329883103946691 0.013975698884910707
    outer loop
      vertex 7.4275359898030793 6.1250136511374818 0.80831217154921919
      vertex 7.2804511198981849 6.1636725120567357 -0.0018832697561732559
      vertex 5.1786806163374202 6.5388925004187568 0.88794470222546718
    endloop
  endfacet
  facet normal -0.44449240205133805 -0.8938034357647453 0.059514054926281867
    outer loop
      vertex 3.4249690142233327 2.3962088177062943 -0.0056800239940146824
      vertex 3.8962391705187329 2.2346113198531734 1.0871644322492857
      vertex 2.9345152920152664 2.701745258502025 0.91992599501286687
    endloop
  endfacet
  facet normal 0.88266393515483488 -0.2511925520459809 -0.39724888844855022
    outer loop
      vertex 9.7675335360783535 2.9207797905739339 1.8599835123747122
      vertex 9.0689984744650189 3.4209294691172962 -0.0083806343047365672
      vertex 9.9707759511279583 3.9858629030749935 1.6380919026677221
    endloop
  endfacet
  facet normal -0.81446378708419864 -0.28465750993023869 -0.50558762007072622
    outer loop
      vertex 2.9377432050630006 3.1198702801586062 1.3280619786225722
      vertex 2.8505081339154827 4.3501630342516249 0.77590790211865102
      vertex 3.1837145513098122 3.9874831645426365 0.44333446617289329
    endloop
  endfacet
  facet normal -0.39000396782003288 -0.13602337998964562 0.91071101079366723
    outer loop
      vertex 6.7241039285388773 3.9912557461932705 6.3940217309125513
      vertex 4.9383857265966249 5.1005242755359701 5.7949834816515056
      vertex 4.7484364891936828 3.1255982234027 5.4186653422522246
    endloop
  endfacet
  facet normal -0.027436891601156008 -0.23214403348509707 -0.97229438170573457
    outer loop
      vertex 4.0816654288799405 1.5846910835216754 0.16954601342853426
      vertex 3.4249690142233327 2.3962088177062943 -0.0056800239940146824
      vertex 6.5153040873404358 2.0303229386296548 -0.0055267418661619772
    endloop
  endfacet
  facet normal -0.0027031947659453162 0.007391327270496172 -0.99996903003004944
    outer loop
      vertex 7.2888115189742777 4.950706076152783 0.00034614963546619748
      vertex 8.7115450758977921 4.4633176638015213 -0.007102454215517362
      vertex 1.6726079790615811 2.8918842114449381 0.00031041434861212025
    endloop
  endfacet
  facet normal -0.96895508337508562 0.037725482366756033 -0.24434163456475533
    outer loop
      vertex 0.28714379562162384 4.4342728167649357 7.4125159776423333
      vertex 0.49321291985741644 4.8568454744759846 6.6605771259806046
      vertex 0.43130404427234814 2.7338754265015783 6.5783023657186801
    endloop
  endfacet
  facet normal -0.80084301987341089 0.48216613109958284 0.35519892953174231
    outer loop
      vertex 4.9374744985982879 6.6867460062372039 3.583967370047394
      vertex 4.8769007875769468 7.3931745956576087 2.488451755652874
      vertex 4.189322103826786 6.3241030062686141 2.3894298430101246
    endloop
  endfacet
  facet normal -0.54156047545059871 0.76763307180475004 -0.34271229698002531
    outer loop
      vertex 1.8547591136542108 7.9997494561854907 8.9773183744626763
      vertex 3.0299120583361585 8.9997241850253431 9.360138852553014
      vertex 2.5622720661379397 8.1149914366361848 8.117420734146922
    endloop
  endfacet
  facet normal -0.33642023468378124 0.31739112946259196 0.88661395016871336
    outer loop
      vertex 0.28714379562162384 4.4342728167649357 7.4125159776423333
      vertex 1.8782570500537366 4.2392266977220059 8.0860770042551202
      vertex 2.0267984056030777 5.2761842632581377 7.7712287941823854
    endloop
  endfacet
  facet normal -0.065647224151455796 -0.81724981122759677 0.57253225936157182
    outer loop
      vertex 3.4032548751340954 2.4465555172320306 4.2951391970297115
      vertex 4.4179425938723718 2.0819547122315738 3.8910423043894626
      vertex 4.7484364891936828 3.1255982234027 5.4186653422522246
    endloop
  endfacet
  facet normal 0.18778353880372797 0.94455974503515505 0.26934036202075562
    outer loop
      vertex 5.2507723469952552 6.4915585604615265 4.9585903226596217
      vertex 7.5533461904712276 6.1832653975371263 4.4344054130619037
      vertex 6.4869228519982904 6.4963031942739677 4.0801096350550781
    endloop
  endfacet
  facet normal 0.074259827102523338 -0.69086460254624926 0.71916032915290629
    outer loop
      vertex 3.2337616678324679 7.624339752283503 8.7976397813842091
      vertex 3.7472531309938653 8.7270280801520013 9.8039196285285648
      vertex 2.4351305842278528 8.3667001508181311 9.5932575381935195
    endloop
  endfacet
  facet normal -0.028738528016203128 -0.95765950921454746 -0.28646528833073975
    outer loop
      vertex 6.5153040873404358 2.0303229386296548 -0.0055267418661619772
      vertex 6.5409947479225252 1.8927755069927088 0.45171991049276716
      vertex 5.1411305528656861 1.7957231802456219 0.91660387868758075
    endloop
  endfacet
  facet normal -0.42025747809200686 -0.63216538413663137 0.65096127320074226
    outer loop
      vertex 3.8962391705187329 2.2346113198531734 1.0871644322492857
      vertex 2.9377432050630006 3.1198702801586062 1.3280619786225722
      vertex 2.9345152920152664 2.701745258502025 0.91992599501286687
    endloop
  endfacet
  facet normal -0.24677961954394076 0.33114317735324444 0.91073817064518914
    outer loop
      vertex 1.7658232784697814 5.1074824354821278 0.20663422340657878
      vertex 2.0969999075727976 4.2900538819593779 0.59358795211108539
      vertex 2.8505081339154827 4.3501630342516249 0.77590790211865102
    endloop
  endfacet
  facet normal 0.63567206457504011 -0.76634059285696243 -0.092968392793172108
    outer loop
      vertex 1.6433897787958462 2.4707254864619763 7.1097250889710617
      vertex 2.7494459938271234 3.4193855651002023 6.8525657618054092
      vertex 2.5952681058102058 3.1995963596199726 7.6101007855680125
    endloop
  endfacet
  facet normal 0.42679979424758441 0.89061767338811337 -0.15697800953943566
    outer loop
      vertex 8.113504447636263 6.4148859063652095 2.6831623818745465
      vertex 8.036328794288611 6.247811528565391 1.5254336838119942
      vertex 6.8346873191156767 6.9417793674484916 2.1955892553963308
    endloop
  endfacet
  facet normal 0.071985150952758772 -0.99373153744557718 0.085532271853132377
    outer loop
      vertex 5.8773551284718586 1.286938564866863 3.7375849470922562
      vertex 6.1715391798495247 1.1841322897096707 2.2955710902744419
      vertex 6.7658148185726255 1.317857136474051 3.3490632290491051
    endloop
  endfacet
  facet normal -0.21225682077767183 -0.85632705940048071 0.47079826823373178
    outer loop
      vertex 6.1567036689676016 2.1299492532180428 5.396865682818377
      vertex 4.7999487088444894 1.3351891432932039 3.3396043298731248
      vertex 5.8773551284718586 1.286938564866863 3.7375849470922562
    endloop
  endfacet
  facet normal -0.019909366815271418 0.99113342661311332 0.13137026970804033
    outer loop
      vertex 7.6822529257393448 6.0626564046028362 5.3638855473122371
      vertex 7.5533461904712276 6.1832653975371263 4.4344054130619037
      vertex 6.2531399001708934 6.0371508344808653 5.3397300641814871
    endloop
  endfacet
  facet normal -0.65347527231339164 0.62485996530348897 -0.42722370280201138
    outer loop
      vertex 2.4564590091097962 6.5045906392601891 2.4772430055074723
      vertex 1.5718837316000778 5.1127973721844375 1.7946314829970378
      vertex 1.5134170498853583 6.2976902223685602 3.617092715608039
    endloop
  endfacet
  facet normal 0.18149671856974084 -0.98318122633558946 0.020337584164856645
    outer loop
      vertex 4.0816654288799405 1.5846910835216754 0.16954601342853426
      vertex 6.5153040873404358 2.0303229386296548 -0.0055267418661619772
      vertex 5.1411305528656861 1.7957231802456219 0.91660387868758075
    endloop
  endfacet
  facet normal 0.91251486778317337 -0.40322819793523818 0.068728716447771288
    outer loop
      vertex 2.7494459938271234 3.4193855651002023 6.8525657618054092
      vertex 3.2144921888797242 4.6191760920391909 7.7172378807885567
      vertex 2.5952681058102058 3.1995963596199726 7.6101007855680125
    endloop
  endfacet
  facet normal -0.70801602004164021 0.47971189000266867 -0.51825651752241697
    outer loop
      vertex 1.8547591136542108 7.9997494561854907 8.9773183744626763
      vertex 2.5622720661379397 8.1149914366361848 8.117420734146922
      vertex 1.8745455543635392 7.1382166319746174 8.1528296474398445
    endloop
  endfacet
  facet normal 0.0032349997383425699 -0.00050729241808956948 -0.999994638701176
    outer loop
      vertex 3.0779294629249634 5.4669568085092299 -0.0089258701344219205
      vertex 4.3123884976836138 6.6724000556953298 -0.0055438895679094102
      vertex 2.2212622936315398 3.7962104561740881 -0.010849641559755874
    endloop
  endfacet
  facet normal 0.615001547865211 -0.62446068780621167 0.48147891491527195
    outer loop
      vertex 8.4631220882618621 3.1645026498828797 5.4134210252834469
      vertex 7.9755245273994682 2.3778418401861066 5.0159674926371833
      vertex 8.8374736087978469 2.614591126252078 4.2220398970873729
    endloop
  endfacet
  facet normal -0.1867761322854723 -0.96281759252253218 -0.19518442544833053
    outer loop
      vertex 2.1325976746573119 2.3489684265341735 2.7959581314069082
      vertex 3.7542565490917781 2.1647193818961616 2.1530331102014921
      vertex 2.1081206503023289 2.1918474823928777 3.5944364564776121
    endloop
  endfacet
  facet normal -0.84726379554187214 0.2937465132107453 -0.44255739372482544
    outer loop
      vertex 2.8339893993938539 5.3664848460642975 1.482113964111762
      vertex 3.2140860545085062 5.5354008783054995 0.86654716294257472
      vertex 2.8505081339154827 4.3501630342516249 0.77590790211865102
    endloop
  endfacet
  facet normal 0.29467986520079908 -0.95493042744885692 0.035660282915059349
    outer loop
      vertex 7.3196019845958951 2.3102743102892029 0.84482229017742494
      vertex 6.5153040873404358 2.0303229386296548 -0.0055267418661619772
      vertex 8.4182200676551169 2.6176208153582268 -0.0033509908540496625
    endloop
  endfacet
  facet normal -0.45427104167448901 0.89012595849450749 -0.036243602334884703
    outer loop
      vertex 3.2140860545085062 5.5354008783054995 0.86654716294257472
      vertex 2.8339893993938539 5.3664848460642975 1.482113964111762
      vertex 5.1786806163374202 6.5388925004187568 0.88794470222546718
    endloop
  endfacet
  facet normal 0.15362165603675931 -0.82550780848599115 -0.54308125075828162
    outer loop
      vertex 7.308248373458607 1.8803596982691684 1.4951001411744214
      vertex 7.3196019845958951 2.3102743102892029 0.84482229017742494
      vertex 8.1447651006218749 2.3142595583478229 1.0721788244360075
    endloop
  endfacet
  facet normal 0.11781510636352115 0.24622718276604752 0.96202483085398971
    outer loop
      vertex 3.2991510469116605 5.9536307060170532 5.7773837437943554
      vertex 3.8078287618596676 4.6387038773389042 6.0516394605031953
      vertex 4.9383857265966249 5.1005242755359701 5.7949834816515056
    endloop
  endfacet
  facet normal 0.38058318596184909 -0.25408476484775278 0.88915542557833549
    outer loop
      vertex 8.4631220882618621 3.1645026498828797 5.4134210252834469
      vertex 6.7241039285388773 3.9912557461932705 6.3940217309125513
      vertex 6.6443630139156831 2.8436256045780981 6.10020663873589
    endloop
  endfacet
  facet normal 0.21199557158523799 -0.88903734143621682 0.40579611033161878
    outer loop
      vertex 2.9345152920152664 2.701745258502025 0.91992599501286687
      vertex 2.3885824387941348 2.2629037187557186 0.24369682091406109
      vertex 3.4249690142233327 2.3962088177062943 -0.0056800239940146824
    endloop
  endfacet
  facet normal 0.54523762452441393 0.82186881228505715 0.16506843488724232
    outer loop
      vertex 8.113504447636263 6.4148859063652095 2.6831623818745465
      vertex 7.4492403551386701 6.7074579865127246 3.4205893037133395
      vertex 8.5075410061872461 5.8437683915703174 4.2251901873325304
    endloop
  endfacet
  facet normal -0.87479120372437835 -0.19817121532758167 -0.44211821869500306
    outer loop
      vertex 0.38615349107228858 4.1317799839477374 3.7580298944550306
      vertex 1.3381347261135479 3.0548585868462084 2.3571150208787595
      vertex 0.83379681959164009 3.2148661044149138 3.2832959896718039
    endloop
  endfacet
  facet normal 0.51406892694658357 -0.74190217789569446 -0.4304814708923177
    outer loop
      vertex 1.831918287657629 2.7240327329627565 4.5697952885763593
      vertex 3.5420564888043629 3.3716350188928255 5.4959010343724168
      vertex 2.4004007613753977 2.6033717296964385 5.4566112427475622
    endloop
  endfacet
  facet normal 0.40594604345792207 -0.20300155673843931 0.89106575389396991
    outer loop
      vertex 6.7241039285388773 3.9912557461932705 6.3940217309125513
      vertex 8.4631220882618621 3.1645026498828797 5.4134210252834469
      vertex 8.0982793828580881 4.4191262910787596 5.8654606231094553
    endloop
  endfacet
  facet normal 0.072566998744157174 0.99423389109223859 -0.078949353998952101
    outer loop
      vertex 2.028372329006455 6.1149636143958306 6.6410519586506256
      vertex 3.2991510469116605 5.9536307060170532 5.7773837437943554
      vertex 1.7632184422184449 5.9939954360141954 4.8739433327571335
    endloop
  endfacet
  facet normal 0.9676844693792821 -0.1671922558118987 -0.18876842246166653
    outer loop
      vertex 9.323579625037798 3.1221318569451348 3.1718364518910702
      vertex 9.1474677539233298 3.1026182086819718 2.286316567268929
      vertex 9.3495415072841972 4.1246453183005514 2.416998460547215
    endloop
  endfacet
  facet normal -0.56235807583867015 -0.81748106678529109 0.12441101232049862
    outer loop
      vertex 0.86349873339834793 3.388269947637764 4.5569571140692533
      vertex 0.83379681959164009 3.2148661044149138 3.2832959896718039
      vertex 1.831918287657629 2.7240327329627565 4.5697952885763593
    endloop
  endfacet
  facet normal -0.35340616384747975 0.92720389209372212 -0.12408475265261881
    outer loop
      vertex 2.7747496312170341 6.8233670256513577 3.9527251619209336
      vertex 2.4564590091097962 6.5045906392601891 2.4772430055074723
      vertex 1.5134170498853583 6.2976902223685602 3.617092715608039
    endloop
  endfacet
  facet normal 0.96662917581790841 0.23146972827790893 -0.10977158716417411
    outer loop
      vertex 4.2066883187837725 8.2992270423629186 9.0456243463555488
      vertex 4.0460615641075783 8.5097861592218056 8.0751687970350474
      vertex 3.9384589938685579 9.1107208657572976 8.3947998632783296
    endloop
  endfacet
  facet normal 0.11324807578859268 -0.98250835704589656 0.14782490204682638
    outer loop
      vertex 3.7542565490917781 2.1647193818961616 2.1530331102014921
      vertex 3.4032548751340954 2.4465555172320306 4.2951391970297115
      vertex 2.1081206503023289 2.1918474823928777 3.5944364564776121
    endloop
  endfacet
  facet normal 0.73081562285886426 0.59084437977476922 -0.34177689253953125
    outer loop
      vertex 9.0439015694183524 4.7522922172078639 1.7984174162933231
      vertex 8.113504447636263 6.4148859063652095 2.6831623818745465
      vertex 9.0506524407027058 5.6128984546646352 3.3006196189878034
    endloop
  endfacet
  facet normal -0.72052565799171286 0.36794045482929372 -0.5877606637702304
    outer loop
      vertex 2.6838251862235509 8.3019228530624627 7.2065885728347512
      vertex 2.028372329006455 6.1149636143958306 6.6410519586506256
      vertex 1.6137227712522628 6.0162178102942407 7.0875484418956836
    endloop
  endfacet
  facet normal -0.79797774045507996 0.021627852388651933 -0.60229873131134826
    outer loop
      vertex 0.79150508933981789 5.0831849384015735 2.827481628553703
      vertex 1.5718837316000778 5.1127973721844375 1.7946314829970378
      vertex 1.6101262480661338 3.5944197926069963 1.6894412846011386
    endloop
  endfacet
  facet normal -0.86098220361066091 -0.11725811147093247 -0.494934521285393
    outer loop
      vertex 0.38615349107228858 4.1317799839477374 3.7580298944550306
      vertex 0.79150508933981789 5.0831849384015735 2.827481628553703
      vertex 1.3381347261135479 3.0548585868462084 2.3571150208787595
    endloop
  endfacet
  facet normal 0.3407410982904982 -0.71537098114453823 0.61003267393811444
    outer loop
      vertex 3.2337616678324679 7.624339752283503 8.7976397813842091
      vertex 4.2066883187837725 8.2992270423629186 9.0456243463555488
      vertex 3.7472531309938653 8.7270280801520013 9.8039196285285648
    endloop
  endfacet
  facet normal 0.31459765836592868 -0.20714067617925008 0.92634823561265434
    outer loop
      vertex 3.2144921888797242 4.6191760920391909 7.7172378807885567
      vertex 1.8782570500537366 4.2392266977220059 8.0860770042551202
      vertex 2.5952681058102058 3.1995963596199726 7.6101007855680125
    endloop
  endfacet
  facet normal 0.58933068402853095 0.032123440927059731 -0.80725301449141051
    outer loop
      vertex 2.5678442401829251 6.7700211799996888 7.0609575487881449
      vertex 2.028372329006455 6.1149636143958306 6.6410519586506256
      vertex 2.6838251862235509 8.3019228530624627 7.2065885728347512
    endloop
  endfacet
  facet normal 0.83304932849597624 0.53696712280714298 -0.13302302551296083
    outer loop
      vertex 9.0439015694183524 4.7522922172078639 1.7984174162933231
      vertex 8.036328794288611 6.247811528565391 1.5254336838119942
      vertex 8.113504447636263 6.4148859063652095 2.6831623818745465
    endloop
  endfacet
  facet normal -0.92414299713223902 0.36888319679136422 0.099422874512990603
    outer loop
      vertex 2.5622720661379397 8.1149914366361848 8.117420734146922
      vertex 2.8373585082758481 8.8871863927773145 7.8093373578637904
      vertex 1.6137227712522628 6.0162178102942407 7.0875484418956836
    endloop
  endfacet
  facet normal 0.8962577966627655 -0.22189224291915541 0.38403879290185172
    outer loop
      vertex 8.4631220882618621 3.1645026498828797 5.4134210252834469
      vertex 8.8374736087978469 2.614591126252078 4.2220398970873729
      vertex 9.2303519775390477 4.7721554516960127 4.5517630621193517
    endloop
  endfacet
  facet normal -0.50519461962933321 0.38433646641847558 0.77269908559447209
    outer loop
      vertex 3.1837145513098122 3.9874831645426365 0.44333446617289329
      vertex 1.6726079790615811 2.8918842114449381 0.00031041434861212025
      vertex 2.9345152920152664 2.701745258502025 0.91992599501286687
    endloop
  endfacet
  facet normal 0.047097380219654567 0.42943329919667012 -0.90186965705555733
    outer loop
      vertex 5.7744961448573697 6.8026866355439495 1.0446672786390954
      vertex 7.4275359898030793 6.1250136511374818 0.80831217154921919
      vertex 5.1786806163374202 6.5388925004187568 0.88794470222546718
    endloop
  endfacet
  facet normal 0.3739790906372405 -0.59235507960920752 0.71362111755981006
    outer loop
      vertex 7.9755245273994682 2.3778418401861066 5.0159674926371833
      vertex 8.4631220882618621 3.1645026498828797 5.4134210252834469
      vertex 6.6443630139156831 2.8436256045780981 6.10020663873589
    endloop
  endfacet
  facet normal 0.69862176554014288 -0.49630685290282789 -0.51537087274628191
    outer loop
      vertex 1.831918287657629 2.7240327329627565 4.5697952885763593
      vertex 2.4004007613753977 2.6033717296964385 5.4566112427475622
      vertex 1.7306758567203351 1.8697457508470772 5.2552401524629699
    endloop
  endfacet
  facet normal -0.75583620045698818 0.58611937444506157 0.29184879129246555
    outer loop
      vertex 1.7632184422184449 5.9939954360141954 4.8739433327571335
      vertex 1.5134170498853583 6.2976902223685602 3.617092715608039
      vertex 0.67429265033688401 4.775705178673145 4.5005101960034155
    endloop
  endfacet
  facet normal -0.30359490342935669 0.5681071089243569 -0.76490813004002534
    outer loop
      vertex 1.5718837316000778 5.1127973721844375 1.7946314829970378
      vertex 2.4564590091097962 6.5045906392601891 2.4772430055074723
      vertex 2.8339893993938539 5.3664848460642975 1.482113964111762
    endloop
  endfacet
  facet normal 0.24735733017928335 0.74033145461822447 -0.62507894582159829
    outer loop
      vertex 5.011965685781913 7.775102520600373 8.98942945150932
      vertex 5.4989691420462741 7.7789795592433606 9.1867391980817317
      vertex 5.5904717220224356 6.7913078918972278 8.0531694737762507
    endloop
  endfacet
  facet normal 0.80398425952565644 -0.59464616566853679 -0.0022908711637889792
    outer loop
      vertex 4.3326184224656608 5.1999593256189645 8.3648837995474814
      vertex 5.7581540796598709 7.122405316507626 9.6452231902020493
      vertex 4.9663788042930648 6.0515728806763267 9.7288348603408572
    endloop
  endfacet
  facet normal -0.90941143774260147 0.13473833758739198 0.39346717434510475
    outer loop
      vertex 2.0658941184050796 6.8621107087899444 8.6896384070892054
      vertex 1.8745455543635392 7.1382166319746174 8.1528296474398445
      vertex 1.4105601606466711 5.760901882883128 7.5520768025351304
    endloop
  endfacet
  facet normal 0.020064311152060768 0.98665112171420788 -0.16160751046312335
    outer loop
      vertex 9.5813784349435274 4.692388401008337 1.4994210129527774
      vertex 8.7115450758977921 4.4633176638015213 -0.007102454215517362
      vertex 9.0439015694183524 4.7522922172078639 1.7984174162933231
    endloop
  endfacet
  facet normal -0.40491397179140781 -0.62349148811980426 -0.66880717676342172
    outer loop
      vertex 1.3381347261135479 3.0548585868462084 2.3571150208787595
      vertex 1.6101262480661338 3.5944197926069963 1.6894412846011386
      vertex 2.9377432050630006 3.1198702801586062 1.3280619786225722
    endloop
  endfacet
  facet normal -0.77831486714471976 -0.5757388511700946 0.2505009837003383
    outer loop
      vertex 3.8962391705187329 2.2346113198531734 1.0871644322492857
      vertex 3.4249690142233327 2.3962088177062943 -0.0056800239940146824
      vertex 4.0816654288799405 1.5846910835216754 0.16954601342853426
    endloop
  endfacet
  facet normal 0.65230095909050878 -0.75646901602967043 -0.047519328243404935
    outer loop
      vertex 8.4182200676551169 2.6176208153582268 -0.0033509908540496625
      vertex 9.1474677539233298 3.1026182086819718 2.286316567268929
      vertex 8.1447651006218749 2.3142595583478229 1.0721788244360075
    endloop
  endfacet
  facet normal 0.55365589466937171 -0.79709292062504011 -0.2410560644068116
    outer loop
      vertex 3.2144921888797242 4.6191760920391909 7.7172378807885567
      vertex 3.4695362837669244 5.021691414622814 6.9720359379059227
      vertex 4.3326184224656608 5.1999593256189645 8.3648837995474814
    endloop
  endfacet
  facet normal -0.94793127926587983 -0.23128955826306333 0.2189324782389068
    outer loop
      vertex 1.8547591136542108 7.9997494561854907 8.9773183744626763
      vertex 1.8745455543635392 7.1382166319746174 8.1528296474398445
      vertex 2.0658941184050796 6.8621107087899444 8.6896384070892054
    endloop
  endfacet
  facet normal 0.44380449923684662 0.015485813762483005 -0.89598981915490827
    outer loop
      vertex 5.5904717220224356 6.7913078918972278 8.0531694737762507
      vertex 3.4695362837669244 5.021691414622814 6.9720359379059227
      vertex 3.1467850339304029 5.6423458145476522 6.822896834417338
    endloop
  endfacet
  facet normal -0.0064934432257246098 -0.0010005397727285907 -0.99997841682470201
    outer loop
      vertex 9.0689984744650189 3.4209294691172962 -0.0083806343047365672
      vertex 8.4182200676551169 2.6176208153582268 -0.0033509908540496625
      vertex 8.7115450758977921 4.4633176638015213 -0.007102454215517362
    endloop
  endfacet
  facet normal -0.029357838555406843 -0.9974453487591054 0.065122143347568079
    outer loop
      vertex 5.8773551284718586 1.286938564866863 3.7375849470922562
      vertex 5.1162685669696941 1.1952080469926429 1.98948470130349
      vertex 6.1715391798495247 1.1841322897096707 2.2955710902744419
    endloop
  endfacet
  facet normal -0.66109734394658581 -0.1202852366562429 -0.74059554661726223
    outer loop
      vertex 0.86349873339834793 3.388269947637764 4.5569571140692533
      vertex 0.19899518393584947 4.2553727206193512 5.0092983020084914
      vertex 0.67429265033688401 4.775705178673145 4.5005101960034155
    endloop
  endfacet
  facet normal -0.14275054652038735 -0.49430285431254967 -0.85748875776105482
    outer loop
      vertex 2.3885824387941348 2.2629037187557186 0.24369682091406109
      vertex 1.6726079790615811 2.8918842114449381 0.00031041434861212025
      vertex 3.4249690142233327 2.3962088177062943 -0.0056800239940146824
    endloop
  endfacet
  facet normal -0.92662182435524965 0.36542238029828139 0.088535182869224169
    outer loop
      vertex 3.0299120583361585 8.9997241850253431 9.360138852553014
      vertex 2.8373585082758481 8.8871863927773145 7.8093373578637904
      vertex 2.5622720661379397 8.1149914366361848 8.117420734146922
    endloop
  endfacet
  facet normal 0.5328467873244157 0.040013507390316359 -0.8452651776007184
    outer loop
      vertex 2.6838251862235509 8.3019228530624627 7.2065885728347512
      vertex 4.0460615641075783 8.5097861592218056 8.0751687970350474
      vertex 2.5678442401829251 6.7700211799996888 7.0609575487881449
    endloop
  endfacet
  facet normal -0.1072292229483546 -0.72367821462453741 0.68175636075047641
    outer loop
      vertex 3.1837145513098122 3.9874831645426365 0.44333446617289329
      vertex 2.8505081339154827 4.3501630342516249 0.77590790211865102
      vertex 2.0969999075727976 4.2900538819593779 0.59358795211108539
    endloop
  endfacet
  facet normal 0.46183584709234832 0.46508267761688471 -0.75525211242419032
    outer loop
      vertex 7.4275359898030793 6.1250136511374818 0.80831217154921919
      vertex 8.2468058814292036 5.1291499528937132 0.69604403018368455
      vertex 7.2888115189742777 4.950706076152783 0.00034614963546619748
    endloop
  endfacet
  facet normal 0.79232206553660967 0.33684297900749238 -0.50868708648555105
    outer loop
      vertex 9.5813784349435274 4.692388401008337 1.4994210129527774
      vertex 9.9707759511279583 3.9858629030749935 1.6380919026677221
      vertex 8.7115450758977921 4.4633176638015213 -0.007102454215517362
    endloop
  endfacet
  facet normal -0.25137391528403125 0.060590781799793776 -0.96599167277760034
    outer loop
      vertex 1.5718837316000778 5.1127973721844375 1.7946314829970378
      vertex 2.8339893993938539 5.3664848460642975 1.482113964111762
      vertex 1.6101262480661338 3.5944197926069963 1.6894412846011386
    endloop
  endfacet
  facet normal 0.70324541922514594 -0.6997684313603818 -0.12557875142825548
    outer loop
      vertex 9.323579625037798 3.1221318569451348 3.1718364518910702
      vertex 8.0174015712456139 1.8530263489454157 2.9290902698237842
      vertex 8.1447651006218749 2.3142595583478229 1.0721788244360075
    endloop
  endfacet
  facet normal -0.57037675818139633 -0.40104915592611123 0.7168193135354507
    outer loop
      vertex 2.0658941184050796 6.8621107087899444 8.6896384070892054
      vertex 1.4105601606466711 5.760901882883128 7.5520768025351304
      vertex 2.0267984056030777 5.2761842632581377 7.7712287941823854
    endloop
  endfacet
  facet normal 0.29595969363998725 -0.20618612881400175 0.93268169276834245
    outer loop
      vertex 4.9383857265966249 5.1005242755359701 5.7949834816515056
      vertex 3.8078287618596676 4.6387038773389042 6.0516394605031953
      vertex 4.7484364891936828 3.1255982234027 5.4186653422522246
    endloop
  endfacet
  facet normal -0.3504238433133931 -0.81379397924377961 -0.46361890533502337
    outer loop
      vertex 3.8962391705187329 2.2346113198531734 1.0871644322492857
      vertex 5.1411305528656861 1.7957231802456219 0.91660387868758075
      vertex 5.1162685669696941 1.1952080469926429 1.98948470130349
    endloop
  endfacet
  facet normal 0.089376565620001305 0.96938207537815912 -0.22871427907655092
    outer loop
      vertex 2.4564590091097962 6.5045906392601891 2.4772430055074723
      vertex 2.7747496312170341 6.8233670256513577 3.9527251619209336
      vertex 4.189322103826786 6.3241030062686141 2.3894298430101246
    endloop
  endfacet
  facet normal 0.21897424098128559 0.8637338595042372 0.45388776336511233
    outer loop
      vertex 6.2531399001708934 6.0371508344808653 5.3397300641814871
      vertex 7.5533461904712276 6.1832653975371263 4.4344054130619037
      vertex 5.2507723469952552 6.4915585604615265 4.9585903226596217
    endloop
  endfacet
  facet normal -0.024378830501246718 0.63375850470779693 0.77314670686353504
    outer loop
      vertex 6.9111093462429132 5.1129887894047341 6.1180248898000711
      vertex 7.6822529257393448 6.0626564046028362 5.3638855473122371
      vertex 6.2531399001708934 6.0371508344808653 5.3397300641814871
    endloop
  endfacet
  facet normal 0.5748431757106528 0.76977776836262768 0.27748425301905716
    outer loop
      vertex 5.6047222039347346 7.3867797682569112 3.5091255494508955
      vertex 6.8346873191156767 6.9417793674484916 2.1955892553963308
      vertex 6.0361028790051421 7.4302052539343597 2.4949987743607016
    endloop
  endfacet
  facet normal -0.82928183072285822 0.42418578200515528 -0.36381048305074948
    outer loop
      vertex 4.9077731083855483 6.8601871991615813 8.1601816045748556
      vertex 4.4008015243124134 6.8413203639537521 9.2937918201455574
      vertex 5.011965685781913 7.775102520600373 8.98942945150932
    endloop
  endfacet
  facet normal -0.42911336826234142 0.06272481019762402 0.90107009458988263
    outer loop
      vertex 1.7658232784697814 5.1074824354821278 0.20663422340657878
      vertex 2.8505081339154827 4.3501630342516249 0.77590790211865102
      vertex 3.2140860545085062 5.5354008783054995 0.86654716294257472
    endloop
  endfacet
  facet normal 0.41679502274798158 0.48391302896100941 -0.7694869000927117
    outer loop
      vertex 4.0460615641075783 8.5097861592218056 8.0751687970350474
      vertex 2.6838251862235509 8.3019228530624627 7.2065885728347512
      vertex 3.9384589938685579 9.1107208657572976 8.3947998632783296
    endloop
  endfacet
  facet normal -0.58530226098804294 -0.80025380274221247 -0.13044199660735475
    outer loop
      vertex 5.1162685669696941 1.1952080469926429 1.98948470130349
      vertex 3.7542565490917781 2.1647193818961616 2.1530331102014921
      vertex 3.8962391705187329 2.2346113198531734 1.0871644322492857
    endloop
  endfacet
  facet normal -0.69929707106783712 -0.36175796792209275 0.61653449136347793
    outer loop
      vertex 0.28714379562162384 4.4342728167649357 7.4125159776423333
      vertex 0.43130404427234814 2.7338754265015783 6.5783023657186801
      vertex 0.97125907994659477 3.4278854146973856 7.5979575947593192
    endloop
  endfacet
  facet normal -0.33860168828595055 -0.84582869312734621 -0.41221683441168377
    outer loop
      vertex 0.18390485733326023 2.5627895336801529 5.3849507789703788
      vertex 0.47762744791269518 2.7424248429923734 4.7750880975207144
      vertex 0.93779217660147629 1.9640059256084508 5.9943408296176104
    endloop
  endfacet
  facet normal 0.19018028769922443 -0.91245877955192178 0.36228501734029495
    outer loop
      vertex 7.3097486446468309 1.7355685189128611 4.1155838230600006
      vertex 5.8773551284718586 1.286938564866863 3.7375849470922562
      vertex 6.7658148185726255 1.317857136474051 3.3490632290491051
    endloop
  endfacet
  facet normal 0.58625462829068753 0.79697774402706933 0.1453684502678308
    outer loop
      vertex 8.113504447636263 6.4148859063652095 2.6831623818745465
      vertex 8.5075410061872461 5.8437683915703174 4.2251901873325304
      vertex 9.0506524407027058 5.6128984546646352 3.3006196189878034
    endloop
  endfacet
  facet normal -0.76684631560444583 0.52661972292500314 -0.36690379620587171
    outer loop
      vertex 2.5622720661379397 8.1149914366361848 8.117420734146922
      vertex 1.6137227712522628 6.0162178102942407 7.0875484418956836
      vertex 1.8745455543635392 7.1382166319746174 8.1528296474398445
    endloop
  endfacet
  facet normal 0.396716732672519 -0.89283731897960927 -0.21320730722689715
    outer loop
      vertex 8.0174015712456139 1.8530263489454157 2.9290902698237842
      vertex 6.1715391798495247 1.1841322897096707 2.2955710902744419
      vertex 7.308248373458607 1.8803596982691684 1.4951001411744214
    endloop
  endfacet
  facet normal 0.63908166579454806 -0.70578792991532291 -0.30567633606661243
    outer loop
      vertex 4.3326184224656608 5.1999593256189645 8.3648837995474814
      vertex 3.4695362837669244 5.021691414622814 6.9720359379059227
      vertex 5.514232603713868 6.3310006583893239 8.2237954765812695
    endloop
  endfacet
  facet normal 0.81943353436497834 -0.52335651354511514 0.2337234316195563
    outer loop
      vertex 2.0267984056030777 5.2761842632581377 7.7712287941823854
      vertex 2.7026845165848137 6.288325744634272 7.6679746716695663
      vertex 3.2337616678324679 7.624339752283503 8.7976397813842091
    endloop
  endfacet
  facet normal -0.022368053409428847 -0.3976263823458136 0.91727472997420667
    outer loop
      vertex 3.8078287618596676 4.6387038773389042 6.0516394605031953
      vertex 3.5420564888043629 3.3716350188928255 5.4959010343724168
      vertex 4.7484364891936828 3.1255982234027 5.4186653422522246
    endloop
  endfacet
  facet normal 0.68345893442982597 -0.68132914262080768 0.26205816980899838
    outer loop
      vertex 5.514232603713868 6.3310006583893239 8.2237954765812695
      vertex 5.7581540796598709 7.122405316507626 9.6452231902020493
      vertex 4.3326184224656608 5.1999593256189645 8.3648837995474814
    endloop
  endfacet
  facet normal 0.66227622855597656 0.7112080960199646 -0.23573977442368224
    outer loop
      vertex 9.0439015694183524 4.7522922172078639 1.7984174162933231
      vertex 8.7115450758977921 4.4633176638015213 -0.007102454215517362
      vertex 8.2468058814292036 5.1291499528937132 0.69604403018368455
    endloop
  endfacet
  facet normal -0.94917906650377815 -0.28425870222423039 -0.13511509878918948
    outer loop
      vertex 0.43130404427234814 2.7338754265015783 6.5783023657186801
      vertex 0.077034795025475722 4.33179723481783 5.7052820648515334
      vertex 0.19899518393584947 4.2553727206193512 5.0092983020084914
    endloop
  endfacet
  facet normal -0.24385105675805144 0.055131616661246705 -0.96824437357637083
    outer loop
      vertex 2.8339893993938539 5.3664848460642975 1.482113964111762
      vertex 2.9377432050630006 3.1198702801586062 1.3280619786225722
      vertex 1.6101262480661338 3.5944197926069963 1.6894412846011386
    endloop
  endfacet
  facet normal 0.92163247104809132 -0.2169903212906491 0.3217278178460331
    outer loop
      vertex 8.8374736087978469 2.614591126252078 4.2220398970873729
      vertex 9.323579625037798 3.1221318569451348 3.1718364518910702
      vertex 9.2303519775390477 4.7721554516960127 4.5517630621193517
    endloop
  endfacet
  facet normal -0.59916061066448301 -0.29900809347866714 0.74269827161668855
    outer loop
      vertex 2.0658941184050796 6.8621107087899444 8.6896384070892054
      vertex 2.4351305842278528 8.3667001508181311 9.5932575381935195
      vertex 1.8547591136542108 7.9997494561854907 8.9773183744626763
    endloop
  endfacet
  facet normal 0.3042198435130874 -0.68268759460367168 0.6643703297010829
    outer loop
      vertex 2.7026845165848137 6.288325744634272 7.6679746716695663
      vertex 4.2066883187837725 8.2992270423629186 9.0456243463555488
      vertex 3.2337616678324679 7.624339752283503 8.7976397813842091
    endloop
  endfacet
  facet normal -0.14878545041949104 -0.23548335109420884 -0.96042203280688576
    outer loop
      vertex 1.831918287657629 2.7240327329627565 4.5697952885763593
      vertex 0.47762744791269518 2.7424248429923734 4.7750880975207144
      vertex 0.86349873339834793 3.388269947637764 4.5569571140692533
    endloop
  endfacet
  facet normal 0.30264482197056075 0.87223687660699256 -0.3841990926867031
    outer loop
      vertex 6.8346873191156767 6.9417793674484916 2.1955892553963308
      vertex 7.4275359898030793 6.1250136511374818 0.80831217154921919
      vertex 5.7744961448573697 6.8026866355439495 1.0446672786390954
    endloop
  endfacet
  facet normal -0.10183972019847665 -0.86706484855231181 -0.48767532210975445
    outer loop
      vertex 5.1162685669696941 1.1952080469926429 1.98948470130349
      vertex 5.1411305528656861 1.7957231802456219 0.91660387868758075
      vertex 6.5409947479225252 1.8927755069927088 0.45171991049276716
    endloop
  endfacet
  facet normal -0.070609611381175955 -0.45508901114683814 0.88764197439845771
    outer loop
      vertex 1.8782570500537366 4.2392266977220059 8.0860770042551202
      vertex 0.97125907994659477 3.4278854146973856 7.5979575947593192
      vertex 2.5952681058102058 3.1995963596199726 7.6101007855680125
    endloop
  endfacet
  facet normal -0.34092094535733791 -0.74231288309546006 -0.57684009275289194
    outer loop
      vertex 1.3381347261135479 3.0548585868462084 2.3571150208787595
      vertex 2.9377432050630006 3.1198702801586062 1.3280619786225722
      vertex 2.1325976746573119 2.3489684265341735 2.7959581314069082
    endloop
  endfacet
  facet normal 0.47806214900210059 -0.85514178723386891 0.20047220609839619
    outer loop
      vertex 7.3097486446468309 1.7355685189128611 4.1155838230600006
      vertex 8.0174015712456139 1.8530263489454157 2.9290902698237842
      vertex 8.8374736087978469 2.614591126252078 4.2220398970873729
    endloop
  endfacet
  facet normal -0.53284475798678188 0.032767380844279714 -0.8455783598452683
    outer loop
      vertex 0.47762744791269518 2.7424248429923734 4.7750880975207144
      vertex 0.19899518393584947 4.2553727206193512 5.0092983020084914
      vertex 0.86349873339834793 3.388269947637764 4.5569571140692533
    endloop
  endfacet
  facet normal 0.43560219740427608 -0.88348681082605063 0.17234204569106221
    outer loop
      vertex 7.3097486446468309 1.7355685189128611 4.1155838230600006
      vertex 6.7658148185726255 1.317857136474051 3.3490632290491051
      vertex 8.0174015712456139 1.8530263489454157 2.9290902698237842
    endloop
  endfacet
  facet normal 0.8003241060034868 0.27509856597470667 -0.53273079913628008
    outer loop
      vertex 9.9707759511279583 3.9858629030749935 1.6380919026677221
      vertex 9.0689984744650189 3.4209294691172962 -0.0083806343047365672
      vertex 8.7115450758977921 4.4633176638015213 -0.007102454215517362
    endloop
  endfacet
  facet normal -0.37371094670983912 0.92690175348444515 -0.034543707049137534
    outer loop
      vertex 1.6137227712522628 6.0162178102942407 7.0875484418956836
      vertex 1.7632184422184449 5.9939954360141954 4.8739433327571335
      vertex 0.70599486755077101 5.5817264635872963 5.2492125389501387
    endloop
  endfacet
  facet normal 0.37024173842566044 0.92837825385942507 0.032169440288407722
    outer loop
      vertex 8.113504447636263 6.4148859063652095 2.6831623818745465
      vertex 6.8346873191156767 6.9417793674484916 2.1955892553963308
      vertex 5.6047222039347346 7.3867797682569112 3.5091255494508955
    endloop
  endfacet
  facet normal -0.0013056985967334731 0.94870290935624213 0.31616622990157633
    outer loop
      vertex 5.2507723469952552 6.4915585604615265 4.9585903226596217
      vertex 2.7747496312170341 6.8233670256513577 3.9527251619209336
      vertex 3.8528503364175428 6.4020314131801079 5.2214564747801839
    endloop
  endfacet
  facet normal 0.36721564110393068 -0.7209839892699611 0.58765190388954047
    outer loop
      vertex 2.9083548367646408 4.6976968800519856 8.004875262521022
      vertex 1.8782570500537366 4.2392266977220059 8.0860770042551202
      vertex 3.2144921888797242 4.6191760920391909 7.7172378807885567
    endloop
  endfacet
  facet normal -0.12668928287189507 -0.61159665209391489 -0.7809605372571139
    outer loop
      vertex 1.831918287657629 2.7240327329627565 4.5697952885763593
      vertex 1.7306758567203351 1.8697457508470772 5.2552401524629699
      vertex 0.47762744791269518 2.7424248429923734 4.7750880975207144
    endloop
  endfacet
  facet normal -0.99764344627227941 -0.049342541062284265 0.047674602793165571
    outer loop
      vertex 2.8505081339154827 4.3501630342516249 0.77590790211865102
      vertex 2.9377432050630006 3.1198702801586062 1.3280619786225722
      vertex 2.8339893993938539 5.3664848460642975 1.482113964111762
    endloop
  endfacet
  facet normal 0.079336268149751629 0.73581816785652743 0.67251571015726752
    outer loop
      vertex 3.8528503364175428 6.4020314131801079 5.2214564747801839
      vertex 3.2991510469116605 5.9536307060170532 5.7773837437943554
      vertex 5.2507723469952552 6.4915585604615265 4.9585903226596217
    endloop
  endfacet
  facet normal 0.16893368965308633 0.98548867660771577 -0.016537133311661092
    outer loop
      vertex 5.1786806163374202 6.5388925004187568 0.88794470222546718
      vertex 7.2804511198981849 6.1636725120567357 -0.0018832697561732559
      vertex 4.3123884976836138 6.6724000556953298 -0.0055438895679094102
    endloop
  endfacet
  facet normal 0.51867147090645138 0.85223738720149489 0.068347210065279135
    outer loop
      vertex 2.8474348119804773 5.745952053989539 7.8027072622497728
      vertex 3.1467850339304029 5.6423458145476522 6.822896834417338
      vertex 2.7027089073361701 5.9199840354169373 6.730953737400811
    endloop
  endfacet
  facet normal -0.86980718664436585 0.4797399236431929 0.11526085078914194
    outer loop
      vertex 0.49321291985741644 4.8568454744759846 6.6605771259806046
      vertex 0.70599486755077101 5.5817264635872963 5.2492125389501387
      vertex 0.077034795025475722 4.33179723481783 5.7052820648515334
    endloop
  endfacet
  facet normal 0.55682162050851547 -0.78627448997212579 -0.26780983804435626
    outer loop
      vertex 6.5409947479225252 1.8927755069927088 0.45171991049276716
      vertex 6.5153040873404358 2.0303229386296548 -0.0055267418661619772
      vertex 7.3196019845958951 2.3102743102892029 0.84482229017742494
    endloop
  endfacet
  facet normal -0.5876573974590974 -0.78793953920516069 -0.1838751363527967
    outer loop
      vertex 0.83379681959164009 3.2148661044149138 3.2832959896718039
      vertex 1.3381347261135479 3.0548585868462084 2.3571150208787595
      vertex 2.1081206503023289 2.1918474823928777 3.5944364564776121
    endloop
  endfacet
  facet normal 0.17885936409081754 -0.93345443602390166 0.31092144304362157
    outer loop
      vertex 1.7306758567203351 1.8697457508470772 5.2552401524629699
      vertex 1.6433897787958462 2.4707254864619763 7.1097250889710617
      vertex 0.93779217660147629 1.9640059256084508 5.9943408296176104
    endloop
  endfacet
  facet normal 0.2428160977176903 -0.49061286445135022 0.83686280830491822
    outer loop
      vertex 2.0658941184050796 6.8621107087899444 8.6896384070892054
      vertex 2.0267984056030777 5.2761842632581377 7.7712287941823854
      vertex 3.2337616678324679 7.624339752283503 8.7976397813842091
    endloop
  endfacet
  facet normal 0.0025456822057026529 0.02108243002447226 -0.99977449989803746
    outer loop
      vertex 3.4249690142233327 2.3962088177062943 -0.0056800239940146824
      vertex 1.6726079790615811 2.8918842114449381 0.00031041434861212025
      vertex 6.5153040873404358 2.0303229386296548 -0.0055267418661619772
    endloop
  endfacet
  facet normal 0.11186173055709621 0.88735211743237852 0.44731775386747841
    outer loop
      vertex 7.5533461904712276 6.1832653975371263 4.4344054130619037
      vertex 7.4492403551386701 6.7074579865127246 3.4205893037133395
      vertex 6.4869228519982904 6.4963031942739677 4.0801096350550781
    endloop
  endfacet
  facet normal 0.35582316957957905 -0.89400543836104696 -0.27229423088125526
    outer loop
      vertex 6.5409947479225252 1.8927755069927088 0.45171991049276716
      vertex 7.308248373458607 1.8803596982691684 1.4951001411744214
      vertex 6.1715391798495247 1.1841322897096707 2.2955710902744419
    endloop
  endfacet
  facet normal 0.28187398720304552 -0.5438743598439606 0.79040985320438606
    outer loop
      vertex 2.0658941184050796 6.8621107087899444 8.6896384070892054
      vertex 3.2337616678324679 7.624339752283503 8.7976397813842091
      vertex 2.4351305842278528 8.3667001508181311 9.5932575381935195
    endloop
  endfacet
  facet normal -0.72130675290337121 0.59022740123744344 0.3624198987976362
    outer loop
      vertex 5.011965685781913 7.775102520600373 8.98942945150932
      vertex 4.4008015243124134 6.8413203639537521 9.2937918201455574
      vertex 5.1104341596231464 7.3997771153237766 9.796651446424999
    endloop
  endfacet
  facet normal 0.074407093542079833 -0.96456293004022786 -0.25314410604007914
    outer loop
      vertex 7.3196019845958951 2.3102743102892029 0.84482229017742494
      vertex 8.4182200676551169 2.6176208153582268 -0.0033509908540496625
      vertex 8.1447651006218749 2.3142595583478229 1.0721788244360075
    endloop
  endfacet
  facet normal 0.88551168459443974 0.39393785214761567 0.24633721824369262
    outer loop
      vertex 3.1467850339304029 5.6423458145476522 6.822896834417338
      vertex 3.8078287618596676 4.6387038773389042 6.0516394605031953
      vertex 3.2991510469116605 5.9536307060170532 5.7773837437943554
    endloop
  endfacet
  facet normal 0.64335891338742657 -0.35749508499616878 -0.67696866453960181
    outer loop
      vertex 5.514232603713868 6.3310006583893239 8.2237954765812695
      vertex 3.4695362837669244 5.021691414622814 6.9720359379059227
      vertex 5.5904717220224356 6.7913078918972278 8.0531694737762507
    endloop
  endfacet
  facet normal 0.98037428172103736 -0.18629034573053152 -0.064514919418372632
    outer loop
      vertex 5.7581540796598709 7.122405316507626 9.6452231902020493
      vertex 5.514232603713868 6.3310006583893239 8.2237954765812695
      vertex 5.5904717220224356 6.7913078918972278 8.0531694737762507
    endloop
  endfacet
endsolid OBJECT
